<?xml version="1.0" encoding="UTF-8"?>
<svg xmlns="http://www.w3.org/2000/svg" xmlns:xlink="http://www.w3.org/1999/xlink" width="0" height="0">
<symbol id="calendar" viewBox="0 0 66.489 67.711"><path fill="currentColor" d="M49.139 6.631c3.74.16 8.86-.68 12.08.85q5.15 2.45 5.16 8.56.06 17.5.11 40.33c.01 6-2.41 11.3-9.04 11.29q-23.36-.05-46.84.05c-6.26.02-10.56-3.02-10.58-9.94q-.07-20.49.03-41.51c.04-6.63 4.39-9.85 10.64-9.64q3.5.12 6.73.02.49-.02.49-.51v-3.93a1.78 1.76 67.9 0 1 .54-1.3q1.09-1.05 2.08-.84 1.7.35 1.95 2 .28 1.83-.03 3.82a.68.67 4.7 0 0 .67.78h20.17q.62 0 .62-.63l-.01-3.28q-.01-1.72 1.48-2.56.56-.33 1.17-.09 2.06.82 2.03 3.04l-.04 2.86q-.01.6.59.63zm-31.05 9.67q-.36-1.8-.13-4.14.08-.81-.74-.82l-8.49-.03a4.03 4.04.1 0 0-4.05 4.04v10.48q0 .66.66.66l56.09.01q.35 0 .35-.35l-.04-10.75a4.09 4.08 89.9 0 0-4.08-4.08l-8.43.01q-.64 0-.64.64l-.03 3.37q-.01 2.11-2.07 2.59-.46.11-.91-.11-1.67-.8-1.67-2.65v-3.3q0-.53-.53-.53l-20.13-.02q-.7 0-.68.7c.05 2.17.64 6.05-2.68 5.86a1.96 1.95 86.2 0 1-1.8-1.58zm43.36 14.86H4.969a.32.32 0 0 0-.32.32v26.73a5.07 4.81 0 0 0 5.07 4.81h46.98a5.07 4.81 0 0 0 5.07-4.81v-26.73a.32.32 0 0 0-.32-.32z"/></symbol>
<symbol id="category" viewBox="0 0 24 24"><path fill="currentColor" stroke="None" d="M.32 11.96c.163.554.319 1.168.541 1.697.223.53.468.98.773 1.468.046.058.097.11.134.177.143.258.371.495.578.713.206.219.411.453.645.647.439.286.76.622 1.228.868.469.246.942.462 1.448.65.505.189 1.09.328 1.62.464.53.137.638.78.928 1.166.29.386.551.84.897 1.195.347.355.67.717 1.075 1.005.406.287.823.617 1.284.813.461.195.997.508 1.502.58.267.04.491.128.761.178.27.05.522.1.806.133.283.035.58.04.88.06.3.02.595-.06.88-.06h.03c.078-.027.177-.067.269-.059h.015c.095-.041.22-.057.328-.074.123-.04.258-.074.388-.088.161-.038.342-.1.507-.148.156-.046.306-.105.463-.148.087-.04.224-.142.328-.133h.015c.075-.12.305-.105.419-.191.113-.087.281-.126.405-.205.123-.079.273-.139.4-.21.527-.363 1.037-.685 1.503-1.157a8.595 8.595 0 0 0 1.17-1.486c.348-.547.59-1.202.847-1.793.007-.028.01-.06.015-.088.014-.064.037-.11.06-.163.026-.276.193-.52.224-.798s.133-.565.164-.843c.075-.668-.01-1.363.015-2.04.024-.677-.011-1.395 0-2.07.011-.675-.006-1.39 0-2.055.006-.665-.004-1.43 0-2.07.004-.64.073-1.303-.25-1.807s-.793-.674-1.332-.75c-.797-.044-1.613-.006-2.417-.015a195.51 195.51 0 0 0-2.402-.015c.453.043.938-.002 1.403.015-.19.024-.428.017-.627.014-.199-.002-.469.01-.657 0-.187-.01-.421.038-.477-.163-.055-.2.01-.427-.015-.635 0-.859-.03-1.73-.03-2.587 0-.101-.014-.199-.03-.296-.034-.124-.078-.257-.119-.384a2.08 2.08 0 0 0-.104-.252 2.153 2.153 0 0 0-.821-.724c-.382-.104-.79-.074-1.209-.074H5.871c-.422-.001-.85.003-1.268 0-.42-.003-.871.006-1.283 0-.413-.006-.872.013-1.269 0C1.655.209 1.28.205.981.418.68.63.54.766.36 1.076c-.177.31-.27.615-.25 1.009.02.393-.008.848 0 1.256.01.409-.004.857 0 1.272.005.415-.002.84 0 1.257.003.416-.001.84 0 1.256.002.418-.002.857 0 1.272.003.415-.004.848 0 1.256.006.408-.023.842.03 1.228.054.385.114.703.18 1.079m15.04-9.95c.005.014.012.022.014.044.073.29-.003.624.015.932.019.308 0 .65 0 .96 0 .2.014.425 0 .622-.014.196.05.44-.03.606-.097.203-.36.128-.567.133a13.78 13.78 0 0 1-.701 0c-.208-.008-.509.024-.701 0-.193-.025-.53.09-.627-.074-.052-.087-.02-.203-.03-.31-.058-.655-.55-1.405-1.253-1.523a1.528 1.528 0 0 0-.522 0 1.66 1.66 0 0 0-.592.24 1.564 1.564 0 0 0-.42.429c-.12.169-.181.398-.255.588-.074.191-.008.533-.21.635-.164.083-.49.047-.672.03-.236 0-.562-.02-.776.044a1.32 1.32 0 0 0-.526.292 1.61 1.61 0 0 0-.365.45 2 2 0 0 0-.212.604c-.05.227-.024.528-.03.783-.007.255.008.566 0 .828-.01.261.01.542.014.798.004.257.017.561 0 .813-.016.253.067.551-.043.77-.11.22-.414.032-.564-.05a4.107 4.107 0 0 1-.5-.317c-.145-.113-.325-.24-.456-.377-.13-.137-.277-.277-.38-.436-.103-.158-.286-.376-.462-.214-.177.162-.306.193-.47.347-.165.154-.299.193-.463.355-.164.161.015.418.12.57.104.15.226.327.365.465.138.138.265.268.418.399.152.131.297.243.47.348.172.104.32.216.513.303.194.087.341.19.558.261.217.071.34.17.596.222.257.053.268.329.268.562.008.075.015.167.015.252 0 .875.03 1.742.03 2.617.008.074.015.167.015.251 0 .174.027.352-.011.52-.039.17-.268.039-.38 0a4.417 4.417 0 0 1-.388-.147 9.91 9.82 0 0 0-.385-.166c-.068-.028-.12-.067-.179-.103-.458-.208-.867-.51-1.264-.832A5.996 5.996 0 0 1 3.3 14.479c-.312-.41-.594-.79-.813-1.28-.218-.49-.425-1-.525-1.563-.1-.564-.18-1.32-.18-1.922-.041-.429-.03-.887-.03-1.331.002-.444-.011-.902.03-1.33.008-.072.01-.16.016-.222v-.71c0-.085.007-.178.015-.251 0-3.772-.05-3.528-.03-3.726.033-.352.538-.201.835-.222.297-.02.732.01 1.06 0 .327-.009.717.004 1.059 0 .342-.004.71.002 1.06 0 .348-.002.706.001 1.059 0H13.227c.353.002.706-.004 1.06 0 .352.004.712-.015 1.058.015-.009.029.018.046.015.074m6.819 11.014c0 .536.036 1.104-.015 1.626 0 .572-.006 1.282-.094 1.814a6.725 6.725 0 0 1-.41 1.502 5.85 5.85 0 0 1-.686 1.227 6.188 6.188 0 0 1-.903 1.013 7.512 7.512 0 0 1-1.101.815 6.532 6.532 0 0 1-1.292.627c-.466.17-1.052.334-1.572.365-.051.01-.103.027-.164.03-.252.01-.536.015-.79.015-.255 0-.518-.037-.757-.065-.238-.027-.458-.09-.68-.14-.22-.048-.422-.124-.626-.191a4.383 4.383 0 0 1-.567-.237c-.186-.091-.379-.161-.552-.266a12.141 12.03 0 0 1-.5-.318c-.163-.11-.3-.244-.455-.362-.156-.118-.288-.26-.426-.391a5.125 5.078 0 0 1-.388-.414 6.758 6.758 0 0 1-.36-.456 6.903 6.84 0 0 1-.32-.497 6.237 6.18 0 0 1-.277-.538c-.087-.189-.174-.374-.236-.579-.063-.204-.144-.385-.198-.603-.053-.218-.077-.461-.119-.695a6.794 6.794 0 0 1-.075-.739c-.016-.25-.01-.526-.03-.783-.018-.258.032-.527.015-.784-.016-.257.041-.558 0-.813-.04-.255.036-.466.294-.493.258-.027.433-.102.656-.162.223-.061.404-.134.602-.217.199-.083.358-.171.54-.263.183-.092.332-.213.5-.318.17-.104.298-.251.45-.367.154-.115.277-.265.416-.402.14-.136.243-.294.373-.443.131-.149.198-.406.023-.547a8.97 8.97 0 0 0-.462-.356c-.178-.127-.284-.222-.478-.339-.194-.117-.37.117-.463.274-.093.156-.229.291-.366.436-.136.144-.289.25-.445.372-.155.122-.344.206-.521.296-.177.091-.407.163-.597.222-.189.06-.516.175-.522-.118-.005-.292.002-.52 0-.798s0-.544 0-.813c0-.27-.002-.554 0-.813.003-.26-.006-.572 0-.814.007-.241-.078-.58.224-.59.597-.085 1.237.008 1.85-.016.614-.023 1.25 0 1.865 0h5.924c.326.001.678-.002 1 0 .321.002.673-.004.984 0 .31.004.697-.009.985 0 .288.01.729-.106.76.237.033.342-.016.642 0 .976.017.333-.023.63-.014.96.009.33-.004.663 0 .991.004.329-.002.648 0 .976.002.327 0 .648 0 .976v.99z" style="stroke-width:.0148523"/><path fill="currentColor" stroke="None" d="M4.847 3.262c-.91-.13-1.672.68-1.73 1.522-.06.843.485 1.755 1.387 1.863.902.109 1.67-.663 1.73-1.522.061-.86-.5-1.738-1.387-1.863Zm6.311 8.93c-.015.06-.042.11-.06.162-.013.084-.02.167-.03.251-.011.101-.021.206-.014.31.036.528.264 1 .712 1.32a1.45 1.45 0 0 0 1.56.06c.467-.288.708-.668.811-1.206.104-.539-.108-1.138-.47-1.52-.364-.382-1.017-.562-1.494-.383-.477.18-.895.517-1.015 1.005zm7.968-1.08c-.924-.088-1.666.633-1.746 1.508-.08.876.483 1.747 1.388 1.863.904.116 1.64-.67 1.719-1.505.078-.835-.471-1.78-1.361-1.866zm-4.193 9.285c.077.007.156.035.224.044.31.017.69.038 1 .03.309-.009.602-.07.88-.133.277-.064.527-.135.772-.24.246-.105.453-.209.671-.34.219-.132.397-.265.597-.414.2-.15.335-.32.53-.481.195-.162.28-.364.475-.535.194-.17.26-.507.047-.684-.214-.178-.395-.253-.582-.43-.186-.176-.473-.33-.649-.103-.176.228-.261.365-.455.554-.194.19-.33.32-.545.465a4.216 4.216 0 0 1-.652.36c-.243.11-.517.163-.79.222-.273.06-.67.067-.956.044a3.67 3.67 0 0 1-.855-.158 4.347 4.347 0 0 1-.71-.302 3.772 3.772 0 0 1-1.107-.914c-.136-.17-.331-.52-.555-.374-.223.145-.384.301-.574.436-.19.134-.507.322-.448.57.06.247.283.39.418.59.136.2.322.34.493.517.172.176.368.298.567.444a4.64 4.64 0 0 0 1.369.655c.254.07.563.15.835.177z" style="stroke-width:.0148523"/></symbol>
<symbol id="clock" viewBox="0 0 24 24" fill="none" stroke="currentColor" stroke-width="2" stroke-linecap="round" stroke-linejoin="round" class="lucide lucide-clock-4"><circle cx="12" cy="12" r="10"/><polyline points="12 6 12 12 16 14"/></symbol>
<symbol id="dollar-sign" viewBox="0 0 24 24" fill="none" stroke="currentColor" stroke-width="2" stroke-linecap="round" stroke-linejoin="round" class="lucide lucide-dollar-sign"><line x1="12" x2="12" y1="2" y2="22"/><path d="M17 5H9.5a3.5 3.5 0 0 0 0 7h5a3.5 3.5 0 0 1 0 7H6"/></symbol>
<symbol id="luggage" xml:space="preserve" fill="currentColor" viewBox="0 0 224.039 224.039"><path d="M216.539 52.26h-64.434V27.599a7.5 7.5 0 0 0-7.5-7.5H75.631a7.5 7.5 0 0 0-7.5 7.5V52.26H7.5a7.5 7.5 0 0 0-7.5 7.5v136.68a7.5 7.5 0 0 0 7.5 7.5h209.039a7.5 7.5 0 0 0 7.5-7.5V59.76a7.5 7.5 0 0 0-7.5-7.5zm-140.908 15h90.827v121.68H57.582V67.26h18.049zm7.5-32.161h53.975V52.26H83.131V35.099zM15 67.26h27.582v121.68H15V67.26zm194.039 121.68h-27.582V67.26h27.582v121.68z"/></symbol>
<symbol id="map-pin" viewBox="0 0 24 24" fill="none" stroke="currentColor" stroke-width="2" stroke-linecap="round" stroke-linejoin="round" class="lucide lucide-map-pin"><path d="M20 10c0 6-8 12-8 12s-8-6-8-12a8 8 0 0 1 16 0Z"/><circle cx="12" cy="10" r="3"/></symbol>
<symbol id="search" viewBox="0 0 24 24" fill="none" stroke="currentColor" stroke-width="2" stroke-linecap="round" stroke-linejoin="round" ><circle cx="11" cy="11" r="8"/><path d="m21 21-4.3-4.3"/></symbol>
<symbol id="shekel" viewBox="0 0 24 24" fill="currentColor"><path d="M13 8v8h2V8c0-2.206-1.794-4-4-4H5v16h2V6h4c1.103 0 2 .897 2 2z"/><path d="M17 16c0 1.103-.897 2-2 2h-4V8H9v12h6c2.206 0 4-1.794 4-4V4h-2v12z"/></symbol>
</svg>
