<svg xmlns="http://www.w3.org/2000/svg" width="200" height="200" fill="#3eb2c7ff" viewBox="0 0 50.001 50.001"><path d="M48.8.975a1 1 0 0 0-1-.975H2.2a1 1 0 0 0-1 .975l-1.2 48A.999.999 0 0 0 1 50h17.94c.458 0 .857-.311.97-.755L25 29.085l5.091 20.16a1 1 0 0 0 .97.755H49a1 1 0 0 0 1-1.025l-1.2-48zM18.161 48H2.026l.14-5.612c.082.03.162.066.254.074l16.497 1.373a1.2 1.2 0 0 0 .084.003c.077 0 .148-.025.221-.042L18.161 48zM25 24c-.458 0-.857.311-.97.755l-4.38 17.346a.978.978 0 0 0-.567-.26L2.586 40.469a.982.982 0 0 0-.373.041L3.176 2h43.648l.964 38.564a.977.977 0 0 0-.872-.409L30.42 41.529c-.072.006-.133.038-.2.058l-4.25-16.831A1 1 0 0 0 25 24zm6.84 24-1.133-4.488 16.377-1.363a.98.98 0 0 0 .734-.447L47.975 48H31.84z"/><path d="M31.496 13.443c-.007-1.054-.35-2.245-.964-3.354A7.79 7.79 0 0 0 28.873 8h17.141V6H4v2h15.475c-.724.666-1.403 1.53-1.974 2.561-.792 1.429-1.232 2.958-1.241 4.306-.011 1.566.554 2.745 1.59 3.319.416.231.874.345 1.359.345.723 0 1.505-.254 2.297-.756 1.138-.722 2.201-1.906 2.993-3.335.179-.322.333-.651.476-.98.6 1.01 1.369 1.854 2.198 2.38.629.399 1.271.602 1.865.602.406 0 .792-.095 1.137-.286.849-.471 1.33-1.46 1.321-2.713zm-8.747.027c-.623 1.125-1.467 2.078-2.315 2.616-.659.417-1.264.547-1.615.351h-.001c-.355-.197-.565-.779-.56-1.556.007-1.004.368-2.225.992-3.35 1.138-2.054 2.681-3.052 3.551-3.052.147 0 .276.029.38.086.355.197.565.779.56 1.556-.006 1.004-.368 2.225-.992 3.349zm6.456.937c-.001 0-.001 0 0 0-.147.084-.505.034-.961-.256-.604-.382-1.207-1.066-1.656-1.877-.448-.809-.709-1.683-.714-2.398-.004-.543.145-.869.292-.951a.365.365 0 0 1 .173-.036c.184 0 .459.083.788.292.604.383 1.207 1.067 1.655 1.877.449.81.709 1.684.715 2.398.003.543-.144.869-.292.951z"/></svg>