<svg xmlns="http://www.w3.org/2000/svg" xml:space="preserve" baseProfile="tiny" version="1.2" viewBox="0 0 12.028 15.293"><g fill-rule="evenodd"><path fill="#171D2D" d="m8.466 14.317 1.059.962h2.504l-1.174-1.065-1.173-1.067-1.075-.977-.284-.258a4.292 4.292 0 0 1-1.181 1.202 2.908 2.908 0 0 1-.79.384 3.32 3.32 0 0 1-.955.133c-.51 0-.98-.099-1.412-.295a3.384 3.384 0 0 1-1.11-.793 3.587 3.587 0 0 1-.72-1.169 3.703 3.703 0 0 1-.194-.696l-1.07-.971-.802-.728A5.621 5.621 0 0 0 0 9.983c0 .727.132 1.412.397 2.06A5.147 5.147 0 0 0 1.5 13.734c.47.48 1.034.859 1.691 1.138.657.281 1.382.421 2.176.421.137 0 .274-.004.407-.014.455-.03.883-.112 1.285-.244a5.33 5.33 0 0 0 1.407-.718z"/><path d="M10.502 11.615a5.24 5.24 0 0 0 .263-1.66 5.4 5.4 0 0 0-.398-2.061c-.264-.646-.631-1.209-1.102-1.689s-1.035-.861-1.691-1.14c-.656-.28-1.382-.419-2.176-.419-.672 0-1.345.104-1.975.344l.665-1.688h-1.81L.716 7.272l1.425 1.295 2.248 2.043L5.64 9.473 3.09 7.154a3.4 3.4 0 0 1 2.277-.847 3.4 3.4 0 0 1 2.522 1.09c.309.332.549.724.721 1.168a3.924 3.924 0 0 1 .254 1.564l.691.628.947.858zM3.865 0a1.253 1.253 0 1 1 .002 2.506A1.253 1.253 0 0 1 3.865 0z"/></g></svg>