<svg xmlns="http://www.w3.org/2000/svg" viewBox="0 0 91.03 90.95"><path fill="#58a7bc" d="M6.417 68.83c-13.42-22.67-5.19-52.45 19.09-64.21 26.71-12.95 58.1 2.54 64.4 31.28q1.08 4.95 1.11 14.6.05 18.89-.09 37.15a3.31 3.3.1 0 1-3.3 3.28q-2.5 0-38.01.02-10.47 0-15.35-1.36-18.63-5.19-27.85-20.76zm.77-26.44c-1.34 18.69 10.1 34.94 28.02 40.15q5.31 1.54 14.26 1.43 16.45-.19 33.71-.01a.72.72 0 0 0 .73-.72q.11-18.08-.05-37.55c-.15-18.73-12.94-34.3-31.06-37.86-22.27-4.38-43.96 11.73-45.61 34.56z"/><path fill="#58a7bc" d="M49.217 40.23c2.3-1.97 2.83-5.93-.2-7.5-2.31-1.19-6.46-1.29-8.33 1.08q-.67.85-1.28 1.72c-1.03 1.48-3.11 1.5-4.41.45q-2.47-2.01-.82-5.19c4.78-9.23 23.66-7.56 24.71 3.72.43 4.71-3.43 9.38-7.06 12.05-2.3 1.7-3.51 4.14-3.32 7.04q.21 2.99-2.79 3.04l-1.03.01q-2.92.04-3.18-2.86c-.63-7.11 2.99-9.52 7.71-13.56z"/><circle cx="44.947" cy="65.77" r="4.72" fill="#58a7bc"/></svg>