<svg xmlns="http://www.w3.org/2000/svg" xml:space="preserve" viewBox="0 0 66.3 58.4" fill="none" stroke="currentColor" stroke-width="2"><path d="M57.2 30.4c2.9-.4 9.1-1 9.1 3.7 0 4.3 0 8.4-.1 12.3 0 3.2-1.6 6.1-2.5 9.2-.5 1.7-2 2.8-3.8 2.8H6.5c-1.8 0-3.4-1.2-3.9-2.9-1-3.2-2.6-6.1-2.6-9.6 0-4.3 0-8.3.1-12 .1-4.6 6.2-4 9-3.6.3 0 .6-.2.7-.5v-.1c0-4.9 0-10.2-.1-15.9-.1-3.6.5-6.4 1.7-8.5C13.5 1.8 16.8 0 21.3 0h23.5c7.6 0 11.9 4.9 11.8 12.2-.1 5.9-.1 11.8 0 17.6-.1.4.2.6.6.6-.1 0 0 0 0 0zM12.8 44.9h40.6c.4 0 .8-.4.8-.8V11.5c0-5-3.9-9.1-8.6-9.1h-25c-4.8 0-8.6 4.1-8.6 9.1v32.6c.1.5.4.8.8.8zm-9.1 3.7c1.1-2 3.1-3.2 5.4-3.6.5-.1.7-.4.7-.8V33.8c0-.7-.6-1.3-1.3-1.3l-4.6.1c-1.1 0-1.6.6-1.6 1.6 0 4.1 0 8.4.1 12.7 0 .6.1 1.2.3 1.7.1.3.5.4.7.3l.3-.3zM57 44.8c2.4 1.1 3.8 1.3 5.7 3.6.9 1.1 1.3.9 1.3-.4V34.5c0-1.2-.6-1.9-1.9-1.9h-3.7c-1.3 0-1.9.6-1.9 1.9V44c0 .4.2.6.5.8zM6.7 56.6h53c1.2 0 2.2-1 2.2-2.2v-1c0-3.5-3-6.3-6.8-6.3H11.3c-3.7 0-6.8 2.8-6.8 6.3v1c0 1.3 1 2.2 2.2 2.2z" /></svg>