<svg xmlns="http://www.w3.org/2000/svg" fill="none" viewBox="0 0 217 175"><g clip-path="url(#a)"><path fill="#CCC" fill-rule="evenodd" d="M198.312 119.336c37.669-1.436-21.799 85.391-116.576 44.889 20.972-15.569 73.077-43.229 116.576-44.889Z" clip-rule="evenodd"/><path fill="#E6E6E6" fill-rule="evenodd" d="M93.267 156.235c-4.462 2.812-8.358 5.482-11.53 7.869 66.598 28.833 115.727-6.148 125.859-28.877-17.158 20.608-59.451 42.39-114.33 21.008Z" clip-rule="evenodd"/><path fill="#CCC" fill-rule="evenodd" d="M178.632 99.954c29.126-10.26 3.804 72.384-80.259 63.535 12.609-17.32 46.623-51.686 80.259-63.535Z" clip-rule="evenodd"/><path fill="#E6E6E6" fill-rule="evenodd" d="M105.524 154.602c-2.822 3.26-5.237 6.272-7.151 8.889 59.288 6.21 89.407-32.788 91.863-52.85-8.488 20.12-36.433 47.238-84.712 43.961Z" clip-rule="evenodd"/><path fill="#A146DB" fill-rule="evenodd" d="M38.202 124.727s2.114-10.997-10.372-21.451c-12.488-10.454-23.619-4.007-24.877.287-1.256 4.296 17.64 21.544 23.259 27.901 5.619 6.358 10.873-1.869 11.99-6.737Z" clip-rule="evenodd"/><path fill="#232323" fill-rule="evenodd" d="M38.202 124.727s2.114-10.997-10.372-21.451c-12.488-10.454-23.619-4.007-24.877.287-1.256 4.296 17.64 21.544 23.259 27.901 5.619 6.358 10.873-1.869 11.99-6.737Z" clip-rule="evenodd"/><mask id="b" width="31" height="33" x="0" y="104" maskUnits="userSpaceOnUse" style="mask-type:luminance"><path fill="#fff" d="M0 104.502h30.236v32.308H0v-32.308Z"/></mask><g mask="url(#b)"><path fill="#fff" fill-rule="evenodd" d="m.233 106.6 27.851 29.936a.85.85 0 0 0 1.211.039l.671-.639a.873.873 0 0 0 .038-1.224l-27.85-29.937a.85.85 0 0 0-1.212-.037l-.672.637a.873.873 0 0 0-.037 1.225Z" clip-rule="evenodd"/></g><path fill="#fff" fill-rule="evenodd" d="M18.808 122.211s-2.488-16.821 5.062-21.763c0 0-.955-2.65-4.224-1.997 0 0-5.216 10.312-3.317 22.417l2.48 1.343Z" clip-rule="evenodd"/><path fill="#A146DB" fill-rule="evenodd" d="M50.834 126.345s9.161-6.316 7.57-22.472c-1.59-16.157-13.986-19.383-17.868-17.218-3.884 2.163-2.472 27.625-2.908 36.067-.437 8.444 9.023 6.291 13.206 3.623Z" clip-rule="evenodd"/><path fill="#232323" fill-rule="evenodd" d="M50.834 126.345s9.161-6.316 7.57-22.472c-1.59-16.157-13.986-19.383-17.868-17.218-3.884 2.163-2.472 27.625-2.908 36.067-.437 8.444 9.023 6.291 13.206 3.623Z" clip-rule="evenodd"/><path fill="#fff" fill-rule="evenodd" d="m36.383 86.897-.94 40.918a.865.865 0 0 0 .85.883l.935.021c.48.011.88-.366.89-.843l.942-40.919a.868.868 0 0 0-.851-.883l-.936-.02a.868.868 0 0 0-.89.843Z" clip-rule="evenodd"/><path fill="#fff" fill-rule="evenodd" d="M38.41 111.364S48.7 97.448 57.6 99.114c0 0 1.222-2.583-1.566-4.383 0 0-11.094 3.847-18.42 13.938l.797 2.695Z" clip-rule="evenodd"/><path fill="#FE60BA" fill-rule="evenodd" d="M157.757.486c1.295-1.27 3.396.165 2.678 1.83-4.879 11.32-12.253 35.81-4.696 69.525 10.618 47.376-21.382 94.579-63.361 101.314-41.98 6.735-49.556-18.821-50.455-24.414-.777-4.834-4.146-24.502 16.075-33.128 5.515-2.351 11.532-3.3 17.516-2.921 2.248.142 4.385.34 6.334.561 14.529 1.64 28.907-4.312 38.009-15.74 7.432-9.33 14.836-23.68 20.018-45.755 3.152-15.901 2.308-36.006 17.882-51.272Z" clip-rule="evenodd"/><path fill="#EA44AB" fill-rule="evenodd" d="M140.875 141.948a88.546 88.546 0 0 0 14.642-32.975c-3.742-1.383-7.475-.213-9.626 7.368l1.693 1.93s-.475 7.278-2.025 10.521c-.444 1.367-1.442 2.391-2.741 2.599-.841.134-1.671-.098-2.384-.593-8.133 16.193-22.704 31.427-39.055 35.64-20.794 5.359-52.417-10.742-57.468-37.93-1.278 2.671-1.994 5.398-2.357 7.974a43.456 43.456 0 0 0-.19 1.679l-.012.133-.016.189c-.36 4.608.296 8.499.587 10.307.898 5.583 8.468 31.089 50.42 24.367 19.378-3.104 36.624-14.832 48.532-31.209Z" clip-rule="evenodd"/><path stroke="#000" d="m172.877 94.732 43.4-6.993s-9.667-33.608-.881-45.797"/><path stroke="#000" d="m169.26 87.5 39.06-34.191s-15.464-13.328-9.701-27.276"/><path fill="#fff" fill-rule="evenodd" d="M176.23 91.332c-1.572-9.718-8.594-21.735-22.85-19.46-14.257 2.273-17.133 15.868-15.562 25.586 1.572 9.719 8.573 26.183 23.55 23.796 10.926-1.742 16.433-20.203 14.862-29.922Z" clip-rule="evenodd"/><path fill="#E6E6E6" fill-rule="evenodd" d="M160.788 121.975c3.305-.535 6.111-2.632 8.376-5.566 4.354-5.402 5.883-13.723 5.883-13.723-10.237 12.544-29.551 10.696-36.167 1.531 3.027 9.263 9.885 19.703 21.908 17.758Z" clip-rule="evenodd"/><path fill="#1A1A1A" fill-rule="evenodd" d="M130.354 104.091a3.254 3.254 0 1 1-1.032-6.426 3.254 3.254 0 0 1 1.032 6.426Z" clip-rule="evenodd"/><path fill="#1A1A1A" fill-rule="evenodd" d="M134.405 105.578c-.832.013-1.687-.487-2.197-1.27-.532-.778-.69-1.821-.456-2.764.248-.944.885-1.767 1.717-2.168.818-.418 1.801-.408 2.517.033-1.642.122-2.766 1.168-3.091 2.449-.337 1.282.146 2.769 1.51 3.72Z" clip-rule="evenodd"/><path fill="#232323" fill-rule="evenodd" d="m111.62 143.066-29.014 6.042s2.206-29.989-5.32-35.401c-3.445-2.478-8.376-4.54-15.079-1.676 0 0 10.749 2.803 13.459 14.505 2.71 11.704.437 28.064 5.46 26.688 5.023-1.375 30.667-8.471 30.932-7.833.264.638-.438-2.325-.438-2.325ZM83.126 112.961c.09 1.067.077 2.219-.065 3.465 0 0-2.76-1.821-5.007-3.773-2.887-2.51 4.641-4.767 5.072.308Z" clip-rule="evenodd"/><path fill="#FFA757" fill-rule="evenodd" d="M95.48 156.162a.015.015 0 0 0-.003.007c-1.624 4.948-7.049 7.673-12.114 6.085-5.064-1.588-7.852-6.887-6.227-11.836v-.005l18.344 5.749Z" clip-rule="evenodd"/><path fill="#006837" fill-rule="evenodd" d="M95.48 156.162a.015.015 0 0 0-.003.007c-1.624 4.948-7.049 7.673-12.114 6.085-5.064-1.588-7.852-6.887-6.227-11.836v-.005l18.344 5.749Z" clip-rule="evenodd"/><path fill="#F0FFD8" fill-rule="evenodd" d="m94.756 156.885-.002.006c-1.563 4.95-6.777 7.674-11.647 6.086s-7.552-6.886-5.989-11.836l.003-.005 17.635 5.749Z" clip-rule="evenodd"/><path fill="#FBC46E" fill-rule="evenodd" d="m86.077 154.029 7.957 2.867-.003.006-.006.019-7.948-2.885v-.007Z" clip-rule="evenodd"/><path fill="#8CC63F" fill-rule="evenodd" d="m86.104 154.065-.027-.036.033.031.008-.01 7.193 4.002a8.31 8.31 0 0 1-4.345 3.931l-2.873-7.913c.004 0 .007-.002.01-.005Z" clip-rule="evenodd"/><path fill="#8CC63F" fill-rule="evenodd" d="m85.926 153.325.025-.01-.023.015.01.01.016-.028.014-.006v.005l.001-.005v.002l-.001.003-.004.041a.056.056 0 0 0 .014.001l1.545 8.493a8.73 8.73 0 0 1-5.983-1.083l4.388-7.407-5.647 6.491a8.718 8.718 0 0 1-2.885-5.365l8.526-1.175c0 .006.001.013.004.018Z" clip-rule="evenodd"/><path fill="#8CC63F" fill-rule="evenodd" d="m86.061 154.004-.001.001.016.011-.019-.007-.001.02-8.66-.412c.035-.84.173-1.672.41-2.472 0-.005.002-.006.003-.009l8.252 2.868Z" clip-rule="evenodd"/><path fill="#FFA757" fill-rule="evenodd" d="m87.523 146.411.005-.004a9.458 9.458 0 0 1 13.424.612c3.538 3.902 3.265 9.951-.611 13.512 0 .003-.002.005-.005.006l-12.813-14.126Z" clip-rule="evenodd"/><path fill="#006837" fill-rule="evenodd" d="m87.523 146.411.005-.004a9.458 9.458 0 0 1 13.424.612c3.538 3.902 3.265 9.951-.611 13.512 0 .003-.002.005-.005.006l-12.813-14.126Z" clip-rule="evenodd"/><path fill="#F0FFD8" fill-rule="evenodd" d="m87.523 146.302.004-.003a9.015 9.015 0 0 1 12.814.585c3.378 3.733 3.117 9.518-.582 12.926a.219.219 0 0 1-.005.004l-12.23-13.512Z" clip-rule="evenodd"/><path fill="#FBC46E" fill-rule="evenodd" d="m94.029 153.306-5.782-6.49.005-.006.014-.013 5.768 6.505a.01.01 0 0 0-.005.004Z" clip-rule="evenodd"/><path fill="#8CC63F" fill-rule="evenodd" d="m94.134 153.257.003.049-.013-.048a.055.055 0 0 1-.011.005l-4.42-7.323a8.164 8.164 0 0 1 5.787-1.199l-1.334 8.517-.012-.001ZM94.08 153.637l-.026-.004.028-.003-.005-.015-.027.017-.017-.002.004-.004-.004.003.001-.001.003-.002.023-.036-.01-.006 2.876-8.233a8.802 8.802 0 0 1 4.669 3.969l-7.502 4.286 8.144-2.846a8.886 8.886 0 0 1-.155 6.161l-8.008-3.267a.038.038 0 0 0 .007-.017Z" clip-rule="evenodd"/><path fill="#8CC63F" fill-rule="evenodd" d="m94.04 153.324.003-.001-.01-.017.013.014.01-.013 7.211 4.702a8.926 8.926 0 0 1-1.473 1.805l-5.753-6.49Z" clip-rule="evenodd"/><path fill="#FFA757" fill-rule="evenodd" d="m72.847 151.859-.005-.004c-4.37-3.016-5.438-8.96-2.383-13.276 3.054-4.317 9.072-5.372 13.443-2.355l.005.003-11.06 15.632Z" clip-rule="evenodd"/><path fill="#006837" fill-rule="evenodd" d="m72.847 151.859-.005-.004c-4.37-3.016-5.438-8.96-2.383-13.276 3.054-4.317 9.072-5.372 13.443-2.355l.005.003-11.06 15.632Z" clip-rule="evenodd"/><path fill="#F0FFD8" fill-rule="evenodd" d="M73.376 151.859a.03.03 0 0 1-.007-.003c-4.162-2.892-5.178-8.587-2.27-12.725 2.908-4.136 8.64-5.146 12.803-2.257a.293.293 0 0 1 .005.004l-10.531 14.981Z" clip-rule="evenodd"/><path fill="#FBC46E" fill-rule="evenodd" d="m78.844 144.631-5.043 7.228a.023.023 0 0 1-.006-.004l-.015-.01 5.058-7.217.006.003Z" clip-rule="evenodd"/><path fill="#8CC63F" fill-rule="evenodd" d="m78.797 144.643.046-.015-.042.023c.001.006.005.007.006.011l-6.16 5.751c-1.474-1.417-2.358-3.296-2.484-5.288l8.631-.495c0 .004 0 .01.003.013ZM78.86 144.582l.003.027-.007-.027c-.006.001-.01.004-.015.007l.022.025.002.014h-.003l-.001-.001-.04-.017a.051.051 0 0 0-.004.013l-8.654-1.024a8.753 8.753 0 0 1 2.833-5.413l5.834 6.388-4.573-7.326a8.842 8.842 0 0 1 6.033-1.183l-1.411 8.518a.057.057 0 0 0-.018-.001Z" clip-rule="evenodd"/><path fill="#8CC63F" fill-rule="evenodd" d="m78.863 143.891-.001-.001-.014.015.011-.018-.015-.006 2.966-7.931c.739.252 1.444.601 2.09 1.034l.007.005-5.044 6.902Z" clip-rule="evenodd"/><path fill="#191919" fill-rule="evenodd" d="m103.374 167.046-1.384-.288 13.806-65.518 1.384.286-13.806 65.52Z" clip-rule="evenodd"/><path fill="#9B9B9B" fill-rule="evenodd" d="m103.378 167.046-.665-.136 13.803-65.67.664.138-13.802 65.668Z" clip-rule="evenodd"/><path fill="#191919" fill-rule="evenodd" d="m127.307 99.832-.04 1.408-10.772-.039-.038-1.407 10.85.038Z" clip-rule="evenodd"/><path fill="#9B9B9B" fill-rule="evenodd" d="m127.307 100.559-.043.847-10.772-.042-.035-.847 10.85.042Z" clip-rule="evenodd"/><path fill="#2B2A2A" fill-rule="evenodd" d="M117.175 99.793c-.802.003-1.444.563-1.442 1.36l1.447.087-.005-1.447Z" clip-rule="evenodd"/><path fill="#ADADAD" fill-rule="evenodd" d="M115.733 101.315a1.89 1.89 0 0 1 1.447.161c-.499.14-.982.085-1.447-.161ZM115.733 100.517a2.093 2.093 0 0 1 1.447.512 2.12 2.12 0 0 1-1.447-.512Z" clip-rule="evenodd"/><path fill="#ADADAD" fill-rule="evenodd" d="M115.733 100.517c.55.164.986.486 1.304.963a2.328 2.328 0 0 1-1.304-.963Z" clip-rule="evenodd"/><path fill="#ADADAD" fill-rule="evenodd" d="M115.733 99.793c.488.301.825.722 1.007 1.265a2.326 2.326 0 0 1-1.007-1.265ZM116.457 99.793c.363.42.545.9.543 1.447a2.126 2.126 0 0 1-.543-1.447Z" clip-rule="evenodd"/><path fill="#ADADAD" fill-rule="evenodd" d="M116.6 99.793c.195.481.199.963.005 1.447a1.875 1.875 0 0 1-.005-1.447Z" clip-rule="evenodd"/><path fill="#fff" fill-rule="evenodd" d="m74.89 138.81 2.142 3.768c.038.065.084.125.133.178l4.047-2.209c.481-.262.668-.833.418-1.276l-2.143-3.765a.876.876 0 0 0-.218-.249l-3.917 2.136c-.535.292-.743.926-.463 1.417ZM79.86 135.294c.03.039.06.08.084.126l2.144 3.766c.11.195.151.408.13.617.417.01.834.012 1.254.009a.94.94 0 0 0-.118-.521l-2.144-3.767c-.279-.49-.936-.65-1.47-.359.036.031.07.067.1.105l.02.024ZM82.127 140.268c-.11.213-.285.402-.519.531l-3.981 2.172c.328.219.784.249 1.176.037l4.116-2.249c.214-.114.373-.286.471-.479-.421.003-.841 0-1.263-.012ZM86.29 138.691l2.142 3.766c.04.065.085.125.136.179l4.045-2.209c.481-.261.669-.833.418-1.275l-2.143-3.766a.844.844 0 0 0-.219-.248l-3.914 2.134c-.537.293-.744.928-.465 1.419ZM91.263 135.174c.03.038.06.08.085.126l2.143 3.766c.111.194.15.408.13.618.416.011.834.011 1.255.01a.958.958 0 0 0-.12-.522l-2.144-3.768c-.277-.489-.934-.649-1.47-.36.036.032.069.068.1.105.007.007.014.017.02.025ZM93.528 140.147a1.274 1.274 0 0 1-.519.531l-3.98 2.173c.327.219.784.25 1.174.036l4.117-2.248c.214-.115.373-.286.471-.48-.421.003-.841-.001-1.263-.012ZM96.166 139.371l2.143 3.847c.039.067.085.127.135.182l4.044-2.255c.484-.268.67-.851.419-1.302l-2.143-3.846a.872.872 0 0 0-.217-.253l-3.915 2.181c-.537.3-.745.946-.466 1.446ZM101.139 135.782a.96.96 0 0 1 .085.129l2.143 3.845c.111.197.15.416.13.63.417.011.834.011 1.254.009a.994.994 0 0 0-.118-.534l-2.145-3.844c-.277-.499-.934-.663-1.469-.367a1.138 1.138 0 0 1 .12.132ZM103.404 140.859c-.109.218-.286.41-.519.542l-3.98 2.218c.327.224.783.254 1.174.037l4.118-2.295c.212-.117.371-.292.471-.491-.422.003-.843 0-1.264-.011ZM72.654 126.875l-3.892 3.93a1.153 1.153 0 0 0-.173.224l4.135 4.093c.492.488 1.26.51 1.717.048l3.892-3.928c.102-.104.176-.224.23-.353l-4-3.959c-.549-.543-1.403-.568-1.91-.055ZM78.724 131.618c-.037.049-.079.1-.124.147l-3.892 3.929c-.2.202-.45.327-.716.378.134.506.279 1.01.428 1.515.223-.052.431-.158.6-.329l3.894-3.931c.505-.509.472-1.358-.07-1.901-.028.055-.06.108-.096.159l-.024.033ZM73.388 136.126a1.595 1.595 0 0 1-.835-.437l-4.067-4.026a1.4 1.4 0 0 0 .365 1.431l4.206 4.164c.22.217.486.346.76.397a51.043 51.043 0 0 1-.429-1.529ZM99.975 134.151l.206-5.372a1.251 1.251 0 0 0-.023-.275l-5.653-.215c-.675-.026-1.24.463-1.263 1.092l-.205 5.374c-.005.141.02.277.066.403l5.47.209c.746.028 1.377-.514 1.402-1.216Z" clip-rule="evenodd"/><path fill="#fff" fill-rule="evenodd" d="M92.509 134.743a1.315 1.315 0 0 1-.008-.186l.206-5.375a1.31 1.31 0 0 1 .264-.741 52.54 52.54 0 0 0-1.302-.803 1.185 1.185 0 0 0-.216.63l-.205 5.372c-.027.699.556 1.286 1.3 1.318a1.582 1.582 0 0 1-.034-.177l-.005-.038ZM93.368 128.006c.252-.158.557-.247.885-.235l5.562.212a1.362 1.362 0 0 0-1.201-.784l-5.752-.22a1.412 1.412 0 0 0-.805.213c.441.266.878.536 1.311.814Z" clip-rule="evenodd"/><path fill="#39B54A" fill-opacity=".56" fill-rule="evenodd" d="m112.116 128.719-5.093 45.435-36.523.123-5.4-45.398 47.016-.16Z" clip-rule="evenodd"/><path stroke="#F5F2ED" stroke-width="1.043" d="m70.649 174.277 36.277-.123 5.914-52.666-48.463.165 6.272 52.624Z" clip-rule="evenodd"/><path fill="#fff" fill-opacity=".24" fill-rule="evenodd" d="m70.649 174.277 36.277-.123 5.914-52.666-48.463.165 6.272 52.624Z" clip-rule="evenodd"/><path fill="#fff" fill-rule="evenodd" d="m86.537 126.524-4.846 2.346a1.213 1.213 0 0 0-.231.15l2.468 5.094c.294.608.992.878 1.56.603l4.845-2.346c.127-.062.234-.148.325-.249l-2.388-4.929c-.328-.675-1.104-.973-1.733-.669ZM90.572 132.843a1.507 1.507 0 0 1-.162.095l-4.846 2.345c-.25.121-.519.154-.779.115a46.596 46.596 0 0 0-.097 1.529c.22.025.447-.006.658-.108l4.844-2.344c.627-.305.874-1.096.553-1.769a1.156 1.156 0 0 1-.141.113.623.623 0 0 1-.03.024ZM84.214 135.252a1.555 1.555 0 0 1-.624-.671l-2.428-5.013c-.298.385-.369.94-.13 1.43l2.512 5.186c.13.269.331.474.568.609.025-.514.058-1.029.102-1.541ZM102.523 127.85l-1.115 4.958a1.203 1.203 0 0 0-.025.259l5.215 1.172c.622.141 1.232-.219 1.362-.798l1.115-4.956c.029-.133.028-.262.008-.388l-5.048-1.133c-.69-.156-1.367.24-1.512.886ZM109.563 128.585a1.19 1.19 0 0 1-.025.175l-1.114 4.958a1.238 1.238 0 0 1-.373.642c.349.33.709.651 1.071.972.149-.149.259-.333.309-.55l1.113-4.958c.146-.642-.294-1.287-.982-1.445a.977.977 0 0 1 .004.171l-.003.035ZM107.606 134.696a1.47 1.47 0 0 1-.863.067l-5.131-1.151c.108.444.478.821.98.934l5.308 1.193c.276.062.547.034.785-.061a38.78 38.78 0 0 1-1.079-.982Z" clip-rule="evenodd"/><path fill="#F5F2ED" fill-rule="evenodd" d="m107.777 166.322-.917 7.836-36.448.119-.972-7.83 38.337-.125Z" clip-rule="evenodd"/><path fill="#F3F4D7" fill-rule="evenodd" d="M76.918 166.802a.483.483 0 1 1-.968.003.482.482 0 0 1 .483-.483.481.481 0 0 1 .485.48ZM89.218 169.699a.483.483 0 0 1-.483.483.483.483 0 1 1-.005-.967.485.485 0 0 1 .488.484ZM95.933 170.887a.224.224 0 0 1-.225.227.226.226 0 1 1 .226-.227ZM86.53 165.103a.227.227 0 1 1-.452 0 .227.227 0 0 1 .452 0ZM77.85 170.887a.227.227 0 0 1-.454.003.23.23 0 0 1 .228-.229c.126 0 .227.101.227.226ZM91.594 164.378a.225.225 0 0 1-.226.226.226.226 0 0 1-.228-.224c0-.126.1-.227.227-.227.124 0 .227.1.227.225ZM87.77 154.51a.485.485 0 0 1-.97.003c0-.267.215-.484.483-.484a.483.483 0 0 1 .486.481ZM100.065 158.129a.482.482 0 0 1-.482.483.484.484 0 1 1 .482-.483ZM94.036 164.516a.362.362 0 0 1-.362.363.362.362 0 0 1-.364-.36.364.364 0 1 1 .726-.003ZM95.935 160.761a.226.226 0 0 1-.227.227.226.226 0 1 1-.002-.451c.126 0 .229.098.229.224ZM106.784 159.318a.226.226 0 0 1-.225.227.227.227 0 1 1 .225-.227ZM101.721 163.657a.225.225 0 0 1-.229.225.224.224 0 0 1-.225-.224c0-.127.099-.227.224-.228.127 0 .228.099.23.227ZM98.105 165.825c0 .126-.1.228-.226.228a.226.226 0 0 1-.229-.227c0-.124.102-.225.227-.227.126 0 .228.101.228.226ZM100.996 157.147a.227.227 0 1 1-.454 0 .227.227 0 0 1 .454 0ZM88.7 159.318a.224.224 0 0 1-.226.227.225.225 0 0 1-.227-.226.226.226 0 1 1 .453-.001ZM103.166 152.086c0 .126-.1.226-.226.228a.225.225 0 0 1-.227-.226.227.227 0 1 1 .453-.002ZM75.472 148.002a.489.489 0 0 1-.483.488.486.486 0 0 1-.486-.485.482.482 0 0 1 .482-.484.483.483 0 0 1 .487.481ZM87.768 150.895a.481.481 0 0 1-.482.484.483.483 0 1 1 .482-.484ZM81.74 158.005a.361.361 0 0 1-.362.364.362.362 0 1 1-.003-.724.36.36 0 0 1 .365.36ZM83.638 153.533a.227.227 0 1 1-.454 0 .227.227 0 0 1 .454 0ZM94.487 152.808a.226.226 0 0 1-.227.226.225.225 0 1 1-.001-.451c.126 0 .227.099.228.225ZM89.424 157.15a.227.227 0 0 1-.454.003.23.23 0 0 1 .225-.232.23.23 0 0 1 .229.229ZM85.81 159.316a.228.228 0 0 1-.456.002c0-.126.1-.227.227-.227.126-.002.227.1.228.225ZM85.806 146.3a.226.226 0 1 1-.453.001.223.223 0 0 1 .225-.227c.126 0 .227.099.228.226ZM76.404 152.808a.223.223 0 0 1-.225.226.226.226 0 0 1-.229-.224c0-.125.102-.226.227-.227.126 0 .227.099.227.225ZM90.87 145.577a.226.226 0 1 1-.453.001.226.226 0 1 1 .453-.001ZM70.41 131.37a.485.485 0 0 1-.97.003c0-.267.216-.484.484-.484a.482.482 0 0 1 .486.481ZM82.706 134.988a.484.484 0 1 1-.969.002.484.484 0 0 1 .969-.002ZM76.678 141.374a.364.364 0 0 1-.728.003.364.364 0 0 1 .728-.003ZM78.574 137.622a.226.226 0 0 1-.225.227.229.229 0 0 1-.229-.225.227.227 0 1 1 .454-.002ZM89.424 136.176c0 .126-.1.225-.226.225a.226.226 0 1 1-.001-.451c.126 0 .227.1.227.226ZM84.36 140.516a.226.226 0 0 1-.227.226.225.225 0 0 1-.227-.224.23.23 0 0 1 .226-.229c.126 0 .228.101.228.227ZM80.744 143.406a.225.225 0 0 1-.225.228.227.227 0 0 1-.229-.227c0-.124.101-.224.227-.225.126 0 .227.099.227.224ZM80.744 129.668a.228.228 0 0 1-.227.226.225.225 0 0 1-.227-.225.225.225 0 0 1 .226-.227c.124-.001.227.1.228.226ZM71.341 136.176a.225.225 0 0 1-.227.225.225.225 0 0 1-.227-.224.227.227 0 0 1 .454-.001ZM85.806 129.669a.227.227 0 1 1-.453.002c0-.126.1-.229.228-.229a.226.226 0 0 1 .225.227ZM92.831 132.818a.484.484 0 1 1-.969.003.484.484 0 0 1 .97-.003ZM105.128 136.43a.485.485 0 0 1-.482.488.487.487 0 0 1-.486-.483.486.486 0 0 1 .483-.485.481.481 0 0 1 .485.48ZM99.1 142.82c0 .201-.161.363-.362.363a.363.363 0 1 1 .362-.363ZM100.996 139.07a.227.227 0 1 1-.227-.227.226.226 0 0 1 .227.227ZM106.784 141.961a.227.227 0 0 1-.228.228.229.229 0 0 1-.226-.227.227.227 0 0 1 .454-.001ZM103.167 144.13a.226.226 0 0 1-.226.229.227.227 0 1 1 .226-.229ZM102.444 131.116a.227.227 0 1 1-.454 0 .227.227 0 0 1 .454 0ZM93.764 137.622a.226.226 0 0 1-.227.227.225.225 0 0 1-.227-.225.227.227 0 0 1 .454-.002ZM108.229 131.114c0 .125-.1.226-.226.226a.226.226 0 1 1-.001-.451c.126 0 .227.099.227.225Z" clip-rule="evenodd"/><path fill="#000" fill-rule="evenodd" d="M159.275 92.846c.49-4.117-2.2-7.855-6.162-8.945.451-.019.902-.032 1.362.02 4.683.53 8.038 4.663 7.494 9.23-.544 4.567-4.781 7.84-9.462 7.309-.462-.052-.897-.165-1.33-.286 4.112-.174 7.608-3.211 8.098-7.328Z" clip-rule="evenodd"/></g><defs><clipPath id="a"><path fill="#fff" d="M0 0h217v175H0z"/></clipPath></defs></svg>