<svg xmlns="http://www.w3.org/2000/svg" viewBox="0 0 646.577 270.165"><path fill="#ec6bb7" d="M391.82 31.482q-.83.25-1.19 1.66-17.42 68.07-34.89 136.44a.4.4 0 0 0 .42.5l21.55-1.62q24.53-1.83 56.31-4.14.95-.07 1.74 1.23.18.3.05.61-.76 1.84-2.74 2.09-57.41 7.04-112.37 13.74c-2.96.36-6.11-1.77-6.46-4.71q-.21-1.77.55-4.85 16.91-68.65 33.8-137.31c.73-2.96 7.86-4.84 10.63-5.71a1.05 1.04.4 0 0 .68-.66c.2-.62.05-1.36.17-2.03q1.41-7.56 8.96-9.55.5-.13.71-.6 3.65-8.07 4.85-16.53a.052.04 50 0 1 .09.01q.1 9.42 2.06 17.53a1.27 1.22 15 0 0 .38.63l3.48 3.13q.47.42 1.06.18c3.32-1.35 11.4-4.81 10.78 2.75q-.3 3.61-.62 7.21z"/><path fill="#d851a7" d="m551.29 31.362-37.62-8.39a4.31 4.31 0 0 0-4.85 2.39q-12.12 26.01-24.6 52.97c-3.92 8.46-15.96 6.87-18.02-2.24q-6.38-28.27-12.73-56.28c-.64-2.81-2.57-3.72-5.47-3.48q-17.31 1.45-34.89 2.89-.9-1.14-1.79-2.74-.92-1.64-.69-2.94c.37-2.07 1.91-4.12 4.14-4.29q17.77-1.39 35.09-2.77 3.68-.29 4.52 3.25 6.45 27.49 12.81 56.36c2.05 9.31 14.08 10.97 18.11 2.22q11.57-25.05 23.71-51.12c1.3-2.8 2.6-4.8 6.17-3.99q16.96 3.83 35.08 7.82 4.72 1.03 4.61 5.4-.04 1.54-1.19 2.81-1.14 1.24-2.39 2.13z"/><path fill="#ec6bb7" d="M551.29 31.362q-21.73 23.33-37.64 50.59-27.18 46.61-40.92 98.84l-3.93 15.3q-7.05 30.06-10.43 62.29c-.7 6.65-9.94 4.36-9.3-1.96q3.03-29.57 3.09-57.32 0-.1-.05-.17-.04-.05-.12-.12.66-7.86-.33-15.79.08.04.21-.12.07-.09.07-.21c-1.22-41.11-7.54-82.17-20.51-121.17q-7.2-21.62-18.32-42.3 17.58-1.44 34.89-2.89c2.9-.24 4.83.67 5.47 3.48q6.35 28.01 12.73 56.28c2.06 9.11 14.1 10.7 18.02 2.24q12.48-26.96 24.6-52.97a4.31 4.31 0 0 1 4.85-2.39z"/><path fill="#d851a7" d="m391.82 31.482-14.11 136.98-21.55 1.62a.4.4 0 0 1-.42-.5q17.47-68.37 34.89-136.44.36-1.41 1.19-1.66z"/><path fill="#ec6bb7" d="M140.05 203.772q-.9-16.62-1.88-33.21-.25-4.2-.75-8.31c-1.61-13.13-4.82-27.71-20.17-30.52q-5.98-1.1-10.75-.89c-9.17-1.06-18 4.12-20.8 12.94q-1.07 3.38-.98 8.39.52 28.41.64 54.24c.01 2.98-2.37 5.39-5.23 5.75q-27.11 3.35-51.25 6.38c-3.87.48-7.06-2.28-6.94-6.4q2.42-85.24 4.61-171.01c.11-4.53 2.03-8.21 7.24-7.48q22.55 3.14 42.96 6.08c2.75.39 5 2.69 5.13 5.57q1 22.81 2.22 46.35a.29.29 0 0 0 .27.27l34.35 2.52q.49.04.47-.45-.6-19.24-1.34-39.33c-.16-4.37 2.44-8.21 7.32-7.11q16.06 3.61 33.09 7.37c2.6.58 4.32 2.8 4.55 5.32q6.43 69.74 12.28 133.3.28 3.04-1.92 5.15-1.43 1.36-5.42 1.84-14.12 1.68-27.7 3.24zM239.17 152.662c14.85 1.92 22.66-7.13 25.41-20.43q7.61-36.79 14.79-71.58c.63-3.04 2.77-5.54 5.69-6.47q15.37-4.87 33.02-10.37c3.37-1.05 6.62 2.18 5.98 5.55q-7.75 41.05-15.56 81.65c-5.17 26.84-19.18 49.67-46.57 57.69q-9.43 2.76-18.64 3.33c-20.69 1.29-46.87-1.28-55.8-23.12-4.47-10.95-3.85-22.96-1.85-34.95q5.57-33.47 10.99-68.51c.52-3.33 3.22-5.43 6.75-5.21q14.65.94 29.56 1.63c3.04.14 5.51 1.53 6.31 4.48q.36 1.35-.02 3.85-5.05 33.04-10.17 66.07-.27 1.74.16 5.99c.58 5.72 4.31 9.67 9.95 10.4zM528.54 89.692c11.53-33.25 45.69-43.45 78.26-41 17.32 1.31 35.02 9.34 38.78 28.13q2.76 13.75-2.12 29.41-8.8 28.22-36.75 38.18-25.29 9.02-52.47 3.79-3.28-.63-7.66-2.41c-24.09-9.78-25.61-34.25-18.04-56.1zm51.74-11.03q-3.14 5.03-4.72 10.12-2.57 8.24-3.83 18.23-.77 6.07.68 12.09 1.09 9.82 12.11 9.38 10.84-.43 16.5-9.27 4.53-7.09 6.26-15.43c1.46-7.01 3.62-14.77 2.84-21.74q-1.14-10.17-11.09-12.23-13.41-2.77-18.75 8.85z"/><path fill="#d851a7" d="M572.41 119.102c2.406 4.627 5.88 6.45 10.42 5.47 8.25-1.77 11.82-10.82 13.64-18.03 1.433-5.686 2.453-11.306 3.06-16.86.63-5.78.19-14.37-7.08-15.93-4.387-.94-8.444.697-12.17 4.91 3.56-7.746 9.81-10.696 18.75-8.85 6.633 1.374 10.33 5.45 11.09 12.23.78 6.97-1.38 14.73-2.84 21.74-1.154 5.56-3.24 10.704-6.26 15.43-3.774 5.894-9.274 8.984-16.5 9.27-7.347.294-11.384-2.833-12.11-9.38z"/><path fill="#61b1c4" d="m468.8 196.092 3.93-15.3q71.43-7.93 143.09-13.73 12.71-1.03 25.83-2 1.04-.08 1.61.8.17.27.21.56.21 1.59-1.38 1.85zm-17.14-13.07q.99 7.93.33 15.79-220.15 35.38-440.25 70.7c-4.02.65-7.88 1.79-10.62-2.33-1.65-2.49-1.47-5.83.5-8.12l18.79-21.88q1.95-2.28 4.84-2.66 150.56-19.51 308.5-38.08 58.73-6.91 117.91-13.42z"/></svg>