<svg xmlns="http://www.w3.org/2000/svg" viewBox="0 0 625.973 435.545"><g fill="none" stroke-width="2"><path stroke="#e3e3e3" d="M382.103 25.038c.44 1.85.78 4.94.61 6.8-.37 4 .58 8.07.31 11.71q-.47 6.28-.9 12.56c-.39 5.71.39 11.29.89 16.98.11 1.36.63 3.07.21 4.81-.75 3.03-2.1 10.4.95 12.53a.6.6 0 0 0 .88-.23c1.38-2.76.51-7.4.22-10.51q-.27-3.04.05-6.16 1.64-15.94.3-31.92c-.24-2.89.54-5.46.33-8.59-.43-6.36 1.56-12.28.56-19.3-.75-5.32-10.45-2.05-13.71-2.01q-14.58.17-29.16.5c-8.82.2-14.18-1.41-23.63-4.02-5.7-1.57-10.83-4.86-16.35-7.1a1.39 1.39 0 0 0-1.33 2.41q7.97 5.75 17.88 8.01 14.31 3.25 28.85 4.93 6.38.74 11.84.33 5.29-.39 11.83-1.3 3.69-.51 8.19.85a.7.7 0 0 1 .5.72q-.24 4.17.68 8" vector-effect="non-scaling-stroke"/><path stroke="#e9a3d0" d="M297.243 25.878q21.8.01 42.74-1.06a2.21 2.21 0 0 1 2.33 2.17q.3 18.75.5 37.13.09 9.02-.89 17.03-.2 1.6 1.4 1.76 12.16 1.27 21.39 9.2.63.54 1.68.37.38-.07.07-.28c-3.02-2.1-5.73-4.53-8.85-6.03q-6.53-3.14-13.94-4.16a1.41 1.41 0 0 1-1.08-2c1.02-2.16 1.49-4.36 1.5-6.94q.01-21.85.2-43.7.02-2.83-.33-5.4a1.58 1.58 0 0 0-1.66-1.37q-17.47.98-35.27.4c-2.32-.07-5.41-.64-8.26-.49q-5.42.28-6.15.24-8.33-.47-16.23-3.04c-5.53-1.8-9.86-3.49-14.02-6.98a.83.83 0 0 0-1.28.28c-.35.74 0 1.63.66 2.15 7.8 6.19 14.28 7.2 22.67 9.66 2.41.7 4.82.54 7.31.75q3.5.31 5.51.31m135.19 114.67 14.35-14.03q.27-.27-.01-.54-.23-.21-.37-.09-8.08 6.99-15.2 15.05" vector-effect="non-scaling-stroke"/><path stroke="#f1f1f1" d="m431.203 140.938-1.33 1.74q-.32.41-.83.34-1.47-.19-2.03-2.58" vector-effect="non-scaling-stroke"/><path stroke="#e9a3d0" d="M427.013 140.438q5.29-10.17 1.35-20.23c-2.1-5.38-8.37-10.48-12.63-14.53-7.12-6.79-17.88-10.57-27.26-12.87q-3.14-.78-7.11-.55-5.4.31-10.81.26-.31 0-.1.23.14.15.4.18c8.95.97 17.37.24 25.97 3.6 6.77 2.64 13.16 5.38 18.73 10.14 5.16 4.42 12.5 11.14 13.07 17.95q.34 4.08-.96 12.46-.08.47-.41.81-2.05 2.05-1.91 5 .02.5-.33.86l-5.59 5.76" vector-effect="non-scaling-stroke"/><path stroke="#f3b0d8" d="M419.423 149.508q-9.18 8.09-18.92 9.99-4.54.89-7.38 1.51c-10.77 2.37-20.82 1.85-31.21-2.03-14.01-5.24-23.13-17.26-22.25-32.51.12-2.02-.61-3.16-2.7-3.15q-17.95.04-35.9-.82c-8.54-.41-17.01-2.98-25.46-4.67q-11.52-2.31-17.97-4.52-18.85-6.45-38.37-17.79-3.57-2.08-5.55 1.51-.24.42-.03.86.51 1.06 1.26 2.03 15.53 20.26 38.52 30 2.28.97 18.11 6.73c11.98 4.35 24.91 7.89 35.83 12.8q14.37 6.46 28.12 14.2c3.22 1.81 6.86 4.45 10.45 6.46 7.79 4.37 15.5 10.95 21.44 16.33q11.74 10.63 19.34 24.75" vector-effect="non-scaling-stroke"/><path stroke="#8d8d8d" d="m386.753 211.188-37.47 41.58a1.22 1.21-39.9 0 1-1.93-.17q-11.29-17.8-25.04-34.08c-6.33-7.49-14.58-16.22-24.01-19.51-6.52-2.27-13.91-.37-19.95 2.48-4.17 1.97-7.93 5.79-11.48 9.02q-1.33 1.21-1.21 2.71a1.03 1.02 80 0 0 1.29.91c21.17-5.84 37.03 2.96 50.45 19.07q9.64 11.58 19.25 23.22 3.7 4.47 10.02 8.84.42.29.88.06 2.6-1.29 4.14-3.24 17.91-22.62 36.53-44.88" vector-effect="non-scaling-stroke"/><path stroke="#f3b0d8" d="M388.223 217.198q1.18.3 1.64.73.1.09.53 1.46 3.52 11.27 4.22 22.97c.64 10.74-1.91 19.8-4.9 30.5-5.22 18.62-3.01 44.46 12.43 59.42q2.6 2.51 5.36 5.21" vector-effect="non-scaling-stroke"/><path stroke="#acd4df" d="M407.503 337.488q-4.46.09-6.02.28c-112.66 13.77-225.3 27.72-337.85 42.32-6.52.85-16.5 1.85-24.7 3.11-4.22.64-6.92 1.8-9.54 4.85q-12.88 15.01-25.81 29.96c-4.62 5.34-2.92 13.37 3.58 15.98q2.32.93 6.18.3 174.68-28.22 349.36-56.47" vector-effect="non-scaling-stroke"/><path stroke="#8d8d8d" d="M362.703 377.818c9.57 6.83 23.97 3.01 34.93 1.2 2.67-.44 3.99-1.46 5.5-3.49q7.42-10.01 14.17-20.1" vector-effect="non-scaling-stroke"/><path stroke="#acd4df" d="M417.303 355.428q.5-2.18 3.44-1.71c2.29.36 2.47 2.86 1.15 4.36q-4.26 4.82-7.63 10.23a.66.65 29 0 0 .27.93q.64.31 1.45.17 18.7-3.31 37.81-6.15" vector-effect="non-scaling-stroke"/><path stroke="#8d8d8d" d="M453.793 363.258q-4.15 9.6-4.6 19.52c-.19 4.33.98 6.35 3.77 9.34 5.8 6.24 12.5 11.26 20.95 10.96 7.48-.26 13.98-4.57 17.8-10.98q2.35-3.93 1.22-7.18c-3.98-11.55-5.7-17.81-11.81-25.92" vector-effect="non-scaling-stroke"/><path stroke="#acd4df" d="M481.123 358.998q2.12-.64 4.36-.97 4.33-.63 4.42-.65 17.48-3.19 35.04-5.94 34.07-5.33 68.11-10.87c7.27-1.18 20.81-3.02 31.07-5.13q.85-.18.85-1.05l-.08-21.71a.8.79-3.3 0 0-.88-.78l-61.22 6.9" vector-effect="non-scaling-stroke"/><path stroke="#8d8d8d" d="M562.793 318.798q-11.9-18.09-19.56-41.39-4.23-12.85-6.42-20.63c-.92-3.26-2.75-6.83-5.11-8.66q-21.22-16.38-41.83-32.6" vector-effect="non-scaling-stroke"/><path stroke="#e9a3d0" d="m489.873 215.518-4.68-10.7" vector-effect="non-scaling-stroke"/><path stroke="#e3e3e3" d="M485.193 204.818q4.42.31 8.78 2.42 4.77 2.31 6.55 2.86 42.83 13.32 85.69-.73 6.03-1.98 14.57-6.88" vector-effect="non-scaling-stroke"/><path stroke="#f1f1f1" d="M600.783 202.488q9.52-4.42 15.59-14.16c5.51-8.85 2.2-14.7-5.58-19.25q-3.29-1.93-5.56-2.7-24.32-8.35-49.81-11.43c-9.69-1.17-22.72-3.63-31.38 1.03q-1.19.65-2.14.69-1.6.08-2.29-.49" vector-effect="non-scaling-stroke"/><path stroke="#e3e3e3" d="M519.613 156.178c7.9-5.58 17.09-11.47 23.68-16.6 24.37-18.93 45.02-46.27 52.52-76.39" vector-effect="non-scaling-stroke"/><path stroke="#f1f1f1" d="M595.813 63.188c2.37-5.48 1.5-10.56 1.3-16.05-.39-10.65-8.22-19.62-19.64-16.48-2.43.67-4.99 1.22-7.28 2.2q-26.67 11.48-51.03 28.7-33.16 23.44-60.94 51.84c-2.88 2.95-4.5 6.45-6.37 10.05q-2.17 4.2-4.87 7.46-4.99 6.06-10.1 12.04a1.07 1.02-20.6 0 0-.24.5q-.39 2.13-2.11 1.33-2.63-1.21-2.1-4.23" vector-effect="non-scaling-stroke"/><path stroke="#d5d5d5" d="m595.813 63.188.01-.74a.38.38 0 0 0-.71-.21c-3.86 6.5-7.53 13.65-11.72 19.44q-39.6 54.85-106.18 71.34-7.3 1.81-23.75 4.49a1.13 1.17 9.6 0 0-.84.62c-.72 1.44.43 2.68 1.81 3.35 4.34 2.13 7.08 6.37 10.23 9.87 3.13 3.47 9.73 1.99 13.62.89q21.54-6.12 41.33-16.06m81.17 46.31 1.07-.99a.63.63 0 0 0-.59-1.08c-12.06 3.1-23.1 5.99-36.28 6.73q-17.19.98-38.25-3.62-24.35-5.31-48.75-19.61-.89-.52-4.76-3.54-3.04-2.37-6.45-2.82" vector-effect="non-scaling-stroke"/><path stroke="#db95c2" d="M466.773 177.558q-14.92-17.88-35-30.08c-1.92-1.16-3.04-2.6-4.6-4.14q-.35-.36-.31-.86l.15-2.04m4.19.5q.49.11 1.23-.39" vector-effect="non-scaling-stroke"/><path stroke="#cc87b3" d="M466.773 177.558q11.47 13.58 18.42 27.26" vector-effect="non-scaling-stroke"/><path stroke="#77315e" d="m489.873 215.518-13.46-10.34" vector-effect="non-scaling-stroke"/><path stroke="#dd54a9" d="M476.413 205.178q1.02-3.21-3.59-6.17c-.76-.49-1.87-2.68-2.78-3.56-8.58-8.27-16.52-18.02-27.12-25.74q-1.42-1.03-2.14-2.61a1.74 1.73 36.8 0 1-.14-.96c.79-5.37-2.25-7.16-6.51-10.22q-6.05-4.33-13.73-4.25-.49 0-.74-.43-.44-.76-.24-1.73" vector-effect="non-scaling-stroke"/><path stroke="#813e66" d="M476.413 205.178q-9.68-6.99-17.8-13.69-2.02-1.66-3.38-.04a1.38 1.38 0 0 0-.05 1.72q3.14 4.14 6.98 7.28 11.97 9.8 23.65 20.15" vector-effect="non-scaling-stroke"/><path stroke="#dd54a9" d="M485.813 220.598q-.82 2.59.72 6.64 5.83 15.38 3.89 32.27-1.09 9.39-5.13 19.24c-9.82 23.94-27.92 43.1-51.85 53.13q-3.25 1.36-10.63 3.19-5.99 1.49-12.22 3.83" vector-effect="non-scaling-stroke"/><path stroke="#a084b8" d="M410.593 338.898q-2.51-.74-3.09-1.41" vector-effect="non-scaling-stroke"/><path stroke="#813e66" d="M388.223 217.198q1.3-1.57-1.47-6.01" vector-effect="non-scaling-stroke"/><path stroke="#3a626d" d="M562.793 318.798q4.82 6.8 11.24 12.49a1.12 1.11 67.4 0 1-.8 1.95c-11.77-.66-23.4-2.16-32.88-11.05" vector-effect="non-scaling-stroke"/><path stroke="#8d8d8d" d="M540.353 322.188q-9.45-9.6-10.14-21.82-.48-8.33-1.51-41.5-.09-2.91-1.74-4.26-15.87-12.91-31.59-25.97" vector-effect="non-scaling-stroke"/><path stroke="#77315e" d="m495.373 228.638-9.56-8.04" vector-effect="non-scaling-stroke"/><path stroke="#3a626d" d="M481.123 358.998q-1.53-1.31-3.35-3.16c-8.76-8.92-20-2.13-23.98 7.42m-36.49-7.83c-4-9.58-14.38-12.09-23.57-10.45-13.92 2.48-26.02 16.55-31.07 29.16q-.68 1.69.04 3.68" vector-effect="non-scaling-stroke"/><path stroke="#e9a3d0" d="m495.373 228.638-.94.28q-.54.16-.32.68c9.03 21.7 7.41 50.18 1.16 72.03q-4.36 15.22-14.62 27.19" vector-effect="non-scaling-stroke"/><path stroke="#9578b0" d="M480.653 328.818q-14.12 14.93-32.89 17.32-19.33 2.46-37.17-7.24" vector-effect="non-scaling-stroke"/><path stroke="#acd4df" d="M540.353 322.188q-1.4.08-2.75 0-1.64-.09-2.75.02-22.73 2.43-45.42 5.23-1.18.14-4.35.83-2.22.49-4.43.55" vector-effect="non-scaling-stroke"/><path stroke="#e9a3d0" d="M329.163 81.658c-6.39 1.08-11.86 1.85-17.71 4.96q-2.68 1.43-5.42 2.76c-3.86 1.87-6.6 4.76-10.03 7.3-2.86 2.12-4.19 4.81-6.37 7.52-2.68 3.34-3.53 6.61-5.02 10.43q-.34.88-.05 1.44.3.54.48-.05c2.22-7.44 6.15-14.98 12.53-19.64 2.94-2.15 5.69-4.83 9.02-6.36 3.19-1.47 6.64-3.41 9.43-4.44q9.73-3.63 20.24-3.63.09 0 .09-.08v-.13q0-.11-.15-.13-3.55-.54-7.04.05" vector-effect="non-scaling-stroke"/><path stroke="#8d8d8d" d="M338.553 105.278q1.38-2.86 4.26-4.22.43-.2.47-.68c.13-1.92-.92-3.29-2.81-3.94q-11.32-3.88-16.73 4.81c-6.61 10.6 4.1 23.02 15.47 18.88q.48-.18.74-.62c2.42-4.17 3.53-8.18 6.61-12.07 1.08-1.36 1.68-3.25.03-4.38a1.68 1.67 47.2 0 0-1.76-.07l-5.43 3.08a.61.61 0 0 1-.85-.79" vector-effect="non-scaling-stroke"/><path stroke="#e9a3d0" d="M160.213 238.668q9.18 4.97 12.83 13.9 1.62 3.99 2 11.81 1.02 21.29 2.83 67.98.21 5.52 4.29 7.81c4.28 2.4 12.27.46 17.38-.55" vector-effect="non-scaling-stroke"/><path stroke="#f3b0d8" d="M199.543 339.618q17.95-1.59 36.81-4.2c7.63-1.05 13.66-1.56 12.82-10.69q-8.64-94-17.3-187.99c-.48-5.21-2.32-8.23-7.4-9.33q-22.27-4.83-44.48-9.99c-4.09-.95-7.12-1.06-9.82 2.13-2.6 3.09-2.35 6.54-2.17 10.57q1.11 26.02 2.18 52.2.07 1.79-1.72 1.65l-47.28-3.69a1.85 1.84 4 0 1-1.7-1.95q.22-3.44.07-7.21-1.07-27.36-2.36-54.76c-.25-5.38-1.25-9.41-6.96-10.29q-15.78-2.44-59.79-8.61c-4.38-.62-7.64-.31-10.11 3.35q-1.48 2.2-1.62 7.32c-2.16 80.05-4.05 160.11-6.62 240.16-.3 9.47 2.67 13.63 12.76 12.32q34.81-4.52 69.62-8.92 4.58-.57 6.59-4.18 1.22-2.2 1.12-7.01-.79-36.56-1.1-73.14c-.08-9.07 1.07-16.4 6.81-22.58q13.23-14.24 32.32-6.11" vector-effect="non-scaling-stroke"/><path stroke="#dd54a9" d="M199.543 339.618q-1.37-23.15-2.72-46.34c-.33-5.49-1.13-11.08-1.77-16.59-.94-7.94-2.55-14.86-5.42-21.53-4.48-10.45-15.14-18.76-26.91-18.21q-1.93.09-2.51 1.72" vector-effect="non-scaling-stroke"/><path stroke="#8d8d8d" d="M400.103 119.588c.47-2.77 2.36-3.33 3.78-5.19a.91.91 0 0 0 .04-1.07q-.89-1.33-3-2.34-7.06-3.36-12.83.79c-6.28 4.51-8.35 12.4-3.05 18.53 3.9 4.52 8.5 6.94 14.58 4.13q9.75-4.51 8.12-15.44-.08-.53-.56-.77c-3.32-1.66-3.89 1.76-6.62 1.88q-.55.02-.46-.52m-41.3 266.49c-1.02 9.48 2.3 19.67 10.24 25.43 3.19 2.32 6.57 3.09 9.06-.58q8.65-12.8 18.21-24.79a.97.96-64.7 0 0-.55-1.55q-.3-.07-.89-.17-.43-.08-.87.04-16.81 4.72-33.31.33a1.51 1.5 10.5 0 0-1.89 1.29m137 15.4q.23-1.11-.17-1.63-.93-1.23-1.92-.06c-7.1 8.4-17.46 12.19-27.87 8.52-5.08-1.79-10.21-6.02-14.59-9.72a.99.99 0 0 0-1.59 1.01c4.02 15.02 11.97 28.13 29.5 26.73q3.87-.31 6.65-2.36c7.64-5.62 8.25-13.89 9.99-22.49" vector-effect="non-scaling-stroke"/><path stroke="#813e66" d="M433.873 170.078q-6.55-1.08-9.68-6.62a.58.58 0 0 0-.83-.19q-.46.32-.55.95c-.33 2.37 3.18 4.85 2.43 7.56-.88 3.23-6.38 5.7-9.3 6.5-9.49 2.61-18.58 1.56-28.22.91q-.44-.03-.83-.25-.54-.31-1.09-.1a.54.54 0 0 0-.21.85c5.47 6.34 19.77 5.62 27.42 4.68 6.5-.8 11.06-2.83 14.75-7.96 2.16-3 3.9-3.93 7.44-3.73a.88.88 0 0 0 .81-1.34q-.61-1-2.14-1.26" vector-effect="non-scaling-stroke"/></g><path fill="#c6c6c6" d="M382.103 25.038q-.92-3.83-.68-8a.7.7 0 0 0-.5-.72q-4.5-1.36-8.19-.85-6.54.91-11.83 1.3-5.46.41-11.84-.33-14.54-1.68-28.85-4.93-9.91-2.26-17.88-8.01a1.39 1.39 0 0 1 1.33-2.41c5.52 2.24 10.65 5.53 16.35 7.1 9.45 2.61 14.81 4.22 23.63 4.02q14.58-.33 29.16-.5c3.26-.04 12.96-3.31 13.71 2.01 1 7.02-.99 12.94-.56 19.3.21 3.13-.57 5.7-.33 8.59q1.34 15.98-.3 31.92-.32 3.12-.05 6.16c.29 3.11 1.16 7.75-.22 10.51a.6.6 0 0 1-.88.23c-3.05-2.13-1.7-9.5-.95-12.53.42-1.74-.1-3.45-.21-4.81-.5-5.69-1.28-11.27-.89-16.98q.43-6.28.9-12.56c.27-3.64-.68-7.71-.31-11.71.17-1.86-.17-4.95-.61-6.8z"/><path fill="#d247a0" d="M291.733 25.568c-2.49-.21-4.9-.05-7.31-.75-8.39-2.46-14.87-3.47-22.67-9.66-.66-.52-1.01-1.41-.66-2.15a.83.83 0 0 1 1.28-.28c4.16 3.49 8.49 5.18 14.02 6.98q7.9 2.57 16.23 3.04.73.04 6.15-.24c2.85-.15 5.94.42 8.26.49q17.8.58 35.27-.4a1.58 1.58 0 0 1 1.66 1.37q.35 2.57.33 5.4-.19 21.85-.2 43.7c-.01 2.58-.48 4.78-1.5 6.94a1.41 1.41 0 0 0 1.08 2q7.41 1.02 13.94 4.16c3.12 1.5 5.83 3.93 8.85 6.03q.31.21-.07.28-1.05.17-1.68-.37-9.23-7.93-21.39-9.2-1.6-.16-1.4-1.76.98-8.01.89-17.03-.2-18.38-.5-37.13a2.21 2.21 0 0 0-2.33-2.17q-20.94 1.07-42.74 1.06-2.01 0-5.51-.31z"/><path fill="#e3e3e3" d="m595.813 63.188.01-.74a.38.38 0 0 0-.71-.21c-3.86 6.5-7.53 13.65-11.72 19.44q-39.6 54.85-106.18 71.34-7.3 1.81-23.75 4.49a1.13 1.17 9.6 0 0-.84.62c-.72 1.44.43 2.68 1.81 3.35 4.34 2.13 7.08 6.37 10.23 9.87 3.13 3.47 9.73 1.99 13.62.89q21.54-6.12 41.33-16.06.69.57 2.29.49.95-.04 2.14-.69c8.66-4.66 21.69-2.2 31.38-1.03q25.49 3.08 49.81 11.43 2.27.77 5.56 2.7c7.78 4.55 11.09 10.4 5.58 19.25q-6.07 9.74-15.59 14.16l1.07-.99a.63.63 0 0 0-.59-1.08c-12.06 3.1-23.1 5.99-36.28 6.73q-17.19.98-38.25-3.62-24.35-5.31-48.75-19.61-.89-.52-4.76-3.54-3.04-2.37-6.45-2.82-14.92-17.88-35-30.08c-1.92-1.16-3.04-2.6-4.6-4.14q-.35-.36-.31-.86l.15-2.04q.56 2.39 2.03 2.58.51.07.83-.34l1.33-1.74q.49.11 1.23-.39-.53 3.02 2.1 4.23 1.72.8 2.11-1.33a1.02 1.07 69.4 0 1 .24-.5q5.11-5.98 10.1-12.04 2.7-3.26 4.87-7.46c1.87-3.6 3.49-7.1 6.37-10.05q27.78-28.4 60.94-51.84 24.36-17.22 51.03-28.7c2.29-.98 4.85-1.53 7.28-2.2 11.42-3.14 19.25 5.83 19.64 16.48.2 5.49 1.07 10.57-1.3 16.05z"/><path fill="#c6c6c6" d="M595.813 63.188c-7.5 30.12-28.15 57.46-52.52 76.39-6.59 5.13-15.78 11.02-23.68 16.6q-19.79 9.94-41.33 16.06c-3.89 1.1-10.49 2.58-13.62-.89-3.15-3.5-5.89-7.74-10.23-9.87-1.38-.67-2.53-1.91-1.81-3.35a1.13 1.17 9.6 0 1 .84-.62q16.45-2.68 23.75-4.49 66.58-16.49 106.18-71.34c4.19-5.79 7.86-12.94 11.72-19.44a.38.38 0 0 1 .71.21z"/><path fill="#d247a0" d="M329.163 81.658q3.49-.59 7.04-.05.15.02.15.13v.13q0 .08-.09.08-10.51 0-20.24 3.63c-2.79 1.03-6.24 2.97-9.43 4.44-3.33 1.53-6.08 4.21-9.02 6.36-6.38 4.66-10.31 12.2-12.53 19.64q-.18.59-.48.05-.29-.56.05-1.44c1.49-3.82 2.34-7.09 5.02-10.43 2.18-2.71 3.51-5.4 6.37-7.52 3.43-2.54 6.17-5.43 10.03-7.3q2.74-1.33 5.42-2.76c5.85-3.11 11.32-3.88 17.71-4.96zm97.85 58.78-.15 2.04q-.04.5.31.86c1.56 1.54 2.68 2.98 4.6 4.14q20.08 12.2 35 30.08 11.47 13.58 18.42 27.26l4.68 10.7-13.46-10.34q1.02-3.21-3.59-6.17c-.76-.49-1.87-2.68-2.78-3.56-8.58-8.27-16.52-18.02-27.12-25.74q-1.42-1.03-2.14-2.61a1.74 1.73 36.8 0 1-.14-.96c.79-5.37-2.25-7.16-6.51-10.22q-6.05-4.33-13.73-4.25-.49 0-.74-.43-.44-.76-.24-1.73l5.59-5.76q.35-.36.33-.86-.14-2.95 1.91-5 .33-.34.41-.81 1.3-8.38.96-12.46c-.57-6.81-7.91-13.53-13.07-17.95-5.57-4.76-11.96-7.5-18.73-10.14-8.6-3.36-17.02-2.63-25.97-3.6q-.26-.03-.4-.18-.21-.23.1-.23 5.41.05 10.81-.26 3.97-.23 7.11.55c9.38 2.3 20.14 6.08 27.26 12.87 4.26 4.05 10.53 9.15 12.63 14.53q3.94 10.06-1.35 20.23z"/><path fill="#e760b1" d="M419.423 149.508q-.2.97.24 1.73.25.43.74.43 7.68-.08 13.73 4.25c4.26 3.06 7.3 4.85 6.51 10.22a1.74 1.73 36.8 0 0 .14.96q.72 1.58 2.14 2.61c10.6 7.72 18.54 17.47 27.12 25.74.91.88 2.02 3.07 2.78 3.56q4.61 2.96 3.59 6.17-9.68-6.99-17.8-13.69-2.02-1.66-3.38-.04a1.38 1.38 0 0 0-.05 1.72q3.14 4.14 6.98 7.28 11.97 9.8 23.65 20.15-.82 2.59.72 6.64 5.83 15.38 3.89 32.27-1.09 9.39-5.13 19.24c-9.82 23.94-27.92 43.1-51.85 53.13q-3.25 1.36-10.63 3.19-5.99 1.49-12.22 3.83-2.51-.74-3.09-1.41-2.76-2.7-5.36-5.21c-15.44-14.96-17.65-40.8-12.43-59.42 2.99-10.7 5.54-19.76 4.9-30.5q-.7-11.7-4.22-22.97-.43-1.37-.53-1.46-.46-.43-1.64-.73 1.3-1.57-1.47-6.01-7.6-14.12-19.34-24.75c-5.94-5.38-13.65-11.96-21.44-16.33-3.59-2.01-7.23-4.65-10.45-6.46q-13.75-7.74-28.12-14.2c-10.92-4.91-23.85-8.45-35.83-12.8q-15.83-5.76-18.11-6.73-22.99-9.74-38.52-30-.75-.97-1.26-2.03-.21-.44.03-.86 1.98-3.59 5.55-1.51 19.52 11.34 38.37 17.79 6.45 2.21 17.97 4.52c8.45 1.69 16.92 4.26 25.46 4.67q17.95.86 35.9.82c2.09-.01 2.82 1.13 2.7 3.15-.88 15.25 8.24 27.27 22.25 32.51 10.39 3.88 20.44 4.4 31.21 2.03q2.84-.62 7.38-1.51 9.74-1.9 18.92-9.99zm14.45 20.57q-6.55-1.08-9.68-6.62a.58.58 0 0 0-.83-.19q-.46.32-.55.95c-.33 2.37 3.18 4.85 2.43 7.56-.88 3.23-6.38 5.7-9.3 6.5-9.49 2.61-18.58 1.56-28.22.91q-.44-.03-.83-.25-.54-.31-1.09-.1a.54.54 0 0 0-.21.85c5.47 6.34 19.77 5.62 27.42 4.68 6.5-.8 11.06-2.83 14.75-7.96 2.16-3 3.9-3.93 7.44-3.73a.88.88 0 0 0 .81-1.34q-.61-1-2.14-1.26z"/><path fill="#1b1b1b" d="M338.553 105.278a.61.61 0 0 0 .85.79l5.43-3.08a1.68 1.67 47.2 0 1 1.76.07c1.65 1.13 1.05 3.02-.03 4.38-3.08 3.89-4.19 7.9-6.61 12.07q-.26.44-.74.62c-11.37 4.14-22.08-8.28-15.47-18.88q5.41-8.69 16.73-4.81c1.89.65 2.94 2.02 2.81 3.94q-.04.48-.47.68-2.88 1.36-4.26 4.22z"/><path fill="#e760b1" d="M199.543 339.618q-1.37-23.15-2.72-46.34c-.33-5.49-1.13-11.08-1.77-16.59-.94-7.94-2.55-14.86-5.42-21.53-4.48-10.45-15.14-18.76-26.91-18.21q-1.93.09-2.51 1.72-19.09-8.13-32.32 6.11c-5.74 6.18-6.89 13.51-6.81 22.58q.31 36.58 1.1 73.14.1 4.81-1.12 7.01-2.01 3.61-6.59 4.18-34.81 4.4-69.62 8.92c-10.09 1.31-13.06-2.85-12.76-12.32 2.57-80.05 4.46-160.11 6.62-240.16q.14-5.12 1.62-7.32c2.47-3.66 5.73-3.97 10.11-3.35q44.01 6.17 59.79 8.61c5.71.88 6.71 4.91 6.96 10.29q1.29 27.4 2.36 54.76.15 3.77-.07 7.21a1.85 1.84 4 0 0 1.7 1.95l47.28 3.69q1.79.14 1.72-1.65-1.07-26.18-2.18-52.2c-.18-4.03-.43-7.48 2.17-10.57 2.7-3.19 5.73-3.08 9.82-2.13q22.21 5.16 44.48 9.99c5.08 1.1 6.92 4.12 7.4 9.33q8.66 93.99 17.3 187.99c.84 9.13-5.19 9.64-12.82 10.69q-18.86 2.61-36.81 4.2z"/><path fill="#1b1b1b" d="M400.563 120.108c2.73-.12 3.3-3.54 6.62-1.88q.48.24.56.77 1.63 10.93-8.12 15.44c-6.08 2.81-10.68.39-14.58-4.13-5.3-6.13-3.23-14.02 3.05-18.53q5.77-4.15 12.83-.79 2.11 1.01 3 2.34a.91.91 0 0 1-.04 1.07c-1.42 1.86-3.31 2.42-3.78 5.19q-.09.54.46.52z"/><path fill="#d247a0" d="M432.433 140.548q-.74.5-1.23.39 7.12-8.06 15.2-15.05.14-.12.37.09.28.27.01.54z"/><path fill="#1b1b1b" d="M433.873 170.078q1.53.26 2.14 1.26a.88.88 0 0 1-.81 1.34c-3.54-.2-5.28.73-7.44 3.73-3.69 5.13-8.25 7.16-14.75 7.96-7.65.94-21.95 1.66-27.42-4.68a.54.54 0 0 1 .21-.85q.55-.21 1.09.1.39.22.83.25c9.64.65 18.73 1.7 28.22-.91 2.92-.8 8.42-3.27 9.3-6.5.75-2.71-2.76-5.19-2.43-7.56q.09-.63.55-.95a.58.58 0 0 1 .83.19q3.13 5.54 9.68 6.62z"/><path fill="#c6c6c6" d="M466.773 177.558q3.41.45 6.45 2.82 3.87 3.02 4.76 3.54 24.4 14.3 48.75 19.61 21.06 4.6 38.25 3.62c13.18-.74 24.22-3.63 36.28-6.73a.63.63 0 0 1 .59 1.08l-1.07.99q-8.54 4.9-14.57 6.88-42.86 14.05-85.69.73-1.78-.55-6.55-2.86-4.36-2.11-8.78-2.42-6.95-13.68-18.42-27.26z"/><path fill="#1b1b1b" d="m476.413 205.178 13.46 10.34q20.61 16.22 41.83 32.6c2.36 1.83 4.19 5.4 5.11 8.66q2.19 7.78 6.42 20.63 7.66 23.3 19.56 41.39 4.82 6.8 11.24 12.49a1.12 1.11 67.4 0 1-.8 1.95c-11.77-.66-23.4-2.16-32.88-11.05q-9.45-9.6-10.14-21.82-.48-8.33-1.51-41.5-.09-2.91-1.74-4.26-15.87-12.91-31.59-25.97l-9.56-8.04q-11.68-10.35-23.65-20.15-3.84-3.14-6.98-7.28a1.38 1.38 0 0 1 .05-1.72q1.36-1.62 3.38.04 8.12 6.7 17.8 13.69zm-89.66 6.01q2.77 4.44 1.47 6.01-18.62 22.26-36.53 44.88-1.54 1.95-4.14 3.24-.46.23-.88-.06-6.32-4.37-10.02-8.84-9.61-11.64-19.25-23.22c-13.42-16.11-29.28-24.91-50.45-19.07a1.03 1.02 80 0 1-1.29-.91q-.12-1.5 1.21-2.71c3.55-3.23 7.31-7.05 11.48-9.02 6.04-2.85 13.43-4.75 19.95-2.48 9.43 3.29 17.68 12.02 24.01 19.51q13.75 16.28 25.04 34.08a1.21 1.22 50.1 0 0 1.93.17z"/><path fill="#d247a0" d="m485.813 220.598 9.56 8.04-.94.28q-.54.16-.32.68c9.03 21.7 7.41 50.18 1.16 72.03q-4.36 15.22-14.62 27.19-14.12 14.93-32.89 17.32-19.33 2.46-37.17-7.24 6.23-2.34 12.22-3.83 7.38-1.83 10.63-3.19c23.93-10.03 42.03-29.19 51.85-53.13q4.04-9.85 5.13-19.24 1.94-16.89-3.89-32.27-1.54-4.05-.72-6.64z"/><path fill="#fff" d="M495.373 228.638q15.72 13.06 31.59 25.97 1.65 1.35 1.74 4.26 1.03 33.17 1.51 41.5.69 12.22 10.14 21.82-1.4.08-2.75 0-1.64-.09-2.75.02-22.73 2.43-45.42 5.23-1.18.14-4.35.83-2.22.49-4.43.55 10.26-11.97 14.62-27.19c6.25-21.85 7.87-50.33-1.16-72.03q-.22-.52.32-.68z"/><path fill="#d247a0" d="M199.543 339.618c-5.11 1.01-13.1 2.95-17.38.55q-4.08-2.29-4.29-7.81-1.81-46.69-2.83-67.98-.38-7.82-2-11.81-3.65-8.93-12.83-13.9.58-1.63 2.51-1.72c11.77-.55 22.43 7.76 26.91 18.21 2.87 6.67 4.48 13.59 5.42 21.53.64 5.51 1.44 11.1 1.77 16.59q1.35 23.19 2.72 46.34z"/><path fill="#58a8bf" d="M481.123 358.998q-1.53-1.31-3.35-3.16c-8.76-8.92-20-2.13-23.98 7.42q-19.11 2.84-37.81 6.15-.81.14-1.45-.17a.66.65 29 0 1-.27-.93q3.37-5.41 7.63-10.23c1.32-1.5 1.14-4-1.15-4.36q-2.94-.47-3.44 1.71c-4-9.58-14.38-12.09-23.57-10.45-13.92 2.48-26.02 16.55-31.07 29.16q-.68 1.69.04 3.68-174.68 28.25-349.36 56.47-3.86.63-6.18-.3c-6.5-2.61-8.2-10.64-3.58-15.98q12.93-14.95 25.81-29.96c2.62-3.05 5.32-4.21 9.54-4.85 8.2-1.26 18.18-2.26 24.7-3.11 112.55-14.6 225.19-28.55 337.85-42.32q1.56-.19 6.02-.28.58.67 3.09 1.41 17.84 9.7 37.17 7.24 18.77-2.39 32.89-17.32 2.21-.06 4.43-.55 3.17-.69 4.35-.83 22.69-2.8 45.42-5.23 1.11-.11 2.75-.02 1.35.08 2.75 0c9.48 8.89 21.11 10.39 32.88 11.05a1.12 1.11 67.4 0 0 .8-1.95q-6.42-5.69-11.24-12.49l61.22-6.9a.79.8 86.7 0 1 .88.78l.08 21.71q0 .87-.85 1.05c-10.26 2.11-23.8 3.95-31.07 5.13q-34.04 5.54-68.11 10.87-17.56 2.75-35.04 5.94-.09.02-4.42.65-2.24.33-4.36.97z"/><path fill="#1b1b1b" d="M417.303 355.428q-6.75 10.09-14.17 20.1c-1.51 2.03-2.83 3.05-5.5 3.49-10.96 1.81-25.36 5.63-34.93-1.2q-.72-1.99-.04-3.68c5.05-12.61 17.15-26.68 31.07-29.16 9.19-1.64 19.57.87 23.57 10.45zm63.82 3.57c6.11 8.11 7.83 14.37 11.81 25.92q1.13 3.25-1.22 7.18c-3.82 6.41-10.32 10.72-17.8 10.98-8.45.3-15.15-4.72-20.95-10.96-2.79-2.99-3.96-5.01-3.77-9.34q.45-9.92 4.6-19.52c3.98-9.55 15.22-16.34 23.98-7.42q1.82 1.85 3.35 3.16zm-112.08 52.51c-7.94-5.76-11.26-15.95-10.24-25.43a1.51 1.5 10.5 0 1 1.89-1.29q16.5 4.39 33.31-.33.44-.12.87-.04.59.1.89.17a.96.97 25.3 0 1 .55 1.55q-9.56 11.99-18.21 24.79c-2.49 3.67-5.87 2.9-9.06.58z"/><path fill="#1b1b1b" d="M495.803 401.478c-1.74 8.6-2.35 16.87-9.99 22.49q-2.78 2.05-6.65 2.36c-17.53 1.4-25.48-11.71-29.5-26.73a.99.99 0 0 1 1.59-1.01c4.38 3.7 9.51 7.93 14.59 9.72 10.41 3.67 20.77-.12 27.87-8.52q.99-1.17 1.92.06.4.52.17 1.63z"/></svg>