<svg xmlns="http://www.w3.org/2000/svg" xml:space="preserve" id="Layer_1" x="0" y="0" version="1.1" viewBox="0 0 339.427 336.294"><style id="style9" type="text/css">.st0{fill:#f2f2f2}.st1{fill:#202020}</style><path id="path11" d="m227.4 145.135-.3-.1c-.1 0-.2-.1-.2-.1-11.3-20.6-27.1-37-47.3-49l25.2-27.2c1.1 0 1.5 1.2 1.2 3.6-1.2 10.2-2.5 20.4-3.8 30.5-.1.4.1.6.6.7l1.6.2c.4 0 .6-.1.6-.5 1.3-10.6 2.7-21.3 4.1-32.1.2-1.5-.4-3-1.9-4.5 26.1-26 55.8-48.8 89.8-63.9 9.9-4.4 21.6-4.8 23.7 8.8 2.4 15.8-6 34.2-15 47.7-11.6 17.2-26.3 31.2-44.2 41.8-1 .6-.9.9.3 1 23.1.7 46.7 4.3 68.4 12.4 11.9 4.5 11.5 14.2 3.3 22.1-4.3 4.1-9.6 7.6-16 10.5-7.1 3.2-14.9 5.4-23.6 6.7-23.1 3.3-45.2.5-66.5-8.6z" class="st0"/><path id="path13" d="m101 42.535 4.9 3.9c.3.2.3.4.1.7l-1 1.5c-.1.2-.4.3-.6.1l-7.8-6.1c-4-3.3-8-6.5-12-9.6-2.9-2.3-5.1-3.6-6.6-4-6-1.5-12.3 2.8-13 8.9-.6 4.6-1.1 9.7-1.5 15.3-.4 4.8-4.4 7.9-9.1 7.1-2.5-.4-4.2 1.6-4 4.1.2 3 .7 5.9 1.3 8.8l-3.2-.8c-.4-3.2-1.4-8.1-.6-10.7.8-2.7 3.5-4.4 6.3-4.2 3 .3 5.9-.3 6.3-3.9.5-4.3 1-8.9 1.3-13.8.5-6.3 3.3-11.2 9.4-13.2 2.8-1 5.6-1 8.2-.1 1.6.5 3.9 1.9 6.8 4.2 5 4 9.9 7.9 14.8 11.8z" class="st1"/><path id="path15" d="M207.2 66.435c1.4 1.5 2.1 3 1.9 4.5-1.4 10.8-2.7 21.5-4.1 32.1 0 .4-.2.5-.6.5l-1.6-.2c-.4 0-.6-.3-.6-.7 1.3-10.1 2.5-20.3 3.8-30.5.3-2.4-.1-3.6-1.2-3.6-.2-.9-.9-1.3-2.2-1.1-5.9.8-9.3-2.6-9.7-8.2-.4-5.1-.8-9.7-1.3-14-.8-6.3-6.7-10.6-12.9-9.2-1.5.4-3.4 1.4-5.7 3.2-6.5 5.1-13 10.2-19.5 15.5l-3.4-1c6.9-5.3 13.8-10.8 20.8-16.3 2.8-2.2 5.1-3.5 6.8-3.9 5.7-1.4 12.1 1.2 14.9 6.4 1.1 2 1.8 4.7 2 8 .3 3.9.8 7.8 1 11.7.1 2.3 1.1 3.9 2.9 4.8.6.3 1.8.4 3.5.3 2.1-.1 3.8.5 5.2 1.7z" class="st1"/><path id="path17" d="m150.2 53.735 3.4 1c16.8 5.9 34.1 19.5 22.9 39.3-3.6 5-8.2 8.8-13.8 11.2-15.5 6.6-37.6 7.5-50.2-5.3-5.5-5.5-7.9-12.9-7.1-22.1 0-.3-.1-.5-.5-.5-15 .9-29.9.1-44.6-2.3-.8-5.8.6-10.8 4-15 7.9-9.7 20.1-15.4 32.4-17.4l7.8 6.1c.2.2.5.1.6-.1l1-1.5c.2-.3.1-.5-.1-.7l-4.9-3.9c10.6-.1 19.6 3.4 27 10.4.2.2.5.3.8.2 7-1.6 14.1-1.4 21.3.6zm-49.1 8.5 4.1-4.1c.2-.2.2-.5 0-.7-.1-.1-.2-.1-.3-.1-6.2-.5-11.8.5-16.7 3.3-.6.4-1 .9-1.2 1.6-1.5 8.4 5.7 15.2 13.8 12.6 5.8-1.9 8.9-8.2 6.6-14-.1-.2-.3-.3-.6-.2-1.9.9-3.8 1.6-5.7 2.1-.4.1-.4 0 0-.5zm53.4 12.3 2.7-2.7c.2-.2.2-.5 0-.7l-.1-.1c-3.4-1.6-7.1-2.6-11.1-3-1-.1-1.7.4-2.4 1.1-2.9 3.4-3.7 7-2.5 10.9 3.8 12 21.7 8.5 20.9-4.3-.1-1.1-.5-1.9-1.3-2.5-.3-.2-.6-.3-.9-.1l-5 1.9c-.8.2-.9 0-.3-.5z" class="st0"/><path id="path19" d="m48.5 72.535 3.2.8 8.5 1.7c14.7 2.4 29.6 3.2 44.6 2.3.3 0 .5.1.5.5-.7 9.2 1.6 16.5 7.1 22.1 12.7 12.8 34.8 11.9 50.2 5.3 5.6-2.4 10.3-6.1 13.8-11.2l3.1 1.8c20.2 12 35.9 28.4 47.3 49 0 .1.1.1.2.1l.3.1-.2.2c-.1.1-.1.3 0 .4 12 22.8 15.4 47.2 10.2 73.1-3.4 17.2-12.5 33.1-28.9 40.4 6.7-7.6 10.8-16.5 14.3-26.4 4.7-13.3 8.8-25.4 12.3-36.4 1.5-4.9 2.9-12.3.9-17.4-1.2-3-2.8-6.1-4.8-9.4-7-11.1-15.4-23-25-35.5 0-.1-.1-.1-.2 0l-2.8 4.7c-.1.1-.1.2 0 .3l26.6 43.5c.2.4.2.7.1 1.1-6.8 16.6-14.6 32.4-23.6 47.3-4.1 6.8-8.5 12.5-13.4 17.1-1.3 1.3-2.8 2.3-4.5 3.1-.4.2-.6.5-.5.9.6 4.7 2.7 8.3 6.3 11.1-7.3.4-14.4-.4-21-2.4-15.9-4.8-25.2-18-27.4-34-.3-1.8-.5-3.9-.8-6.4 0-6.5 1-13.3 2.8-20.6 6.7-21.1 3.6-40.8-9.2-58.9-2.4-3.4-6.1-7.4-11.2-11.9-8.9-8-19.1-15.1-30.6-21.3-9.7-5.2-18.3-9.3-26-12.2-4-1.5-9.6-3.3-16.7-5.2l-3.2-1.1c-20-6.1-38.1-14.4-50.5-32-.2-.3-.3-.7-.3-1 .1-1.3.7-2.2 1.9-2.5.6-.2 1.5.1 2.5.7 13.5 8.4 28.3 14.5 44.1 18.2zm119.8 70.4c2.8 1.7 5.2 2.7 7 2.9 5.2.8 11-4.2 10.4-9.7-.4-3.6-2-6.8-4.7-9.5l-2.1-2.4c-.2-.3-.2-.6 0-.8 1.1-1.3 1.8-2.8 2.3-4.5.1-.3.3-.4.6-.4 2.2.5 4.1.1 5.8-1.2.4-.3.3-.4-.2-.4-4.7.2-9.2-1.1-10.4-6.4-.1-.5-.2-.5-.3 0-.5 2.3.5 4.8 2.2 6.4.2.2.3.5.1.8-4.5 9.8-23.7 8.1-32.6 6.8-2.3-.4-2.4 0-.4 1.1 2.1 1.1 4.5 1.9 7.5 2.3.4.1.7.3.9.6 3.5 6.1 8.1 10.8 13.9 14.4z" style="fill:#e760af"/><path id="path21" d="M101.4 62.635c1.8-.6 3.7-1.3 5.7-2.1.2-.1.5 0 .6.2 2.3 5.8-.8 12.1-6.6 14-8.2 2.7-15.4-4.2-13.8-12.6.1-.7.5-1.3 1.2-1.6 4.9-2.7 10.4-3.8 16.7-3.3.3 0 .5.2.4.5 0 .1-.1.2-.1.3l-4.1 4.1c-.7.6-.7.7 0 .5z" class="st1"/><path id="path23" d="m154.7 74.935 5-1.9c.3-.1.6-.1.9.1.8.6 1.3 1.5 1.3 2.5.8 12.8-17 16.4-20.9 4.3-1.2-3.9-.4-7.6 2.5-10.9.6-.7 1.4-1.2 2.4-1.1 4 .4 7.7 1.4 11.1 3 .2.1.3.4.2.6 0 .1-.1.1-.1.1l-2.7 2.7c-.5.7-.4.9.3.6z" class="st1"/><path id="path25" d="m50.6 89.135 3.2 1.1.4 5c.1.6-.2.9-.8 1.1l-.9.2c-.5.1-1-.2-1.1-.8v-.1z" class="st1"/><path id="path27" d="M181 126.735c-8.1 2.5-12.3 7.9-12.7 16.2-5.8-3.6-10.4-8.3-14-14.3-.2-.3-.5-.6-.9-.6-2.9-.4-5.4-1.2-7.5-2.3-2.1-1.1-1.9-1.5.4-1.1 8.9 1.4 28.1 3 32.6-6.8.1-.3.1-.6-.1-.8-1.7-1.6-2.7-4.1-2.2-6.4.1-.5.2-.5.3 0 1.2 5.2 5.7 6.6 10.4 6.4.5 0 .5.1.2.4-1.6 1.3-3.6 1.7-5.8 1.2-.3-.1-.5 0-.6.4-.4 1.6-1.2 3.1-2.3 4.5-.2.3-.2.6 0 .8z" class="st1"/><path id="path29" d="M181 126.735c2.8 2.7 4.3 5.9 4.7 9.5.6 5.5-5.2 10.5-10.4 9.7-1.9-.3-4.2-1.3-7-2.9.4-8.5 4.6-13.9 12.7-16.3z" style="fill:#58a7bd"/><path id="path31" d="M208.4 259.235c-4.5 3.6-8.6 6.5-14.3 3.9-3.6-2.7-5.8-6.4-6.3-11.1 0-.4.2-.8.5-.9 1.7-.8 3.2-1.8 4.5-3.1 4.8-4.6 9.3-10.3 13.4-17.1 8.9-15 16.8-30.7 23.6-47.3.2-.4.1-.7-.1-1.1l-26.6-43.5c-.1-.1-.1-.2 0-.3l2.8-4.7c0-.1.1-.1.2-.1 9.6 12.5 18 24.4 25 35.5 2 3.2 3.6 6.3 4.8 9.4 2 5.1.6 12.5-.9 17.4-3.4 11-7.5 23.2-12.3 36.4-3.5 10.1-7.6 19-14.3 26.6z" class="st1"/><path id="path33" d="M147.7 199.835c-1.9 7.2-2.8 14.1-2.8 20.6-5.2 6.6-10.3 12.8-15.4 18.7-3.8 4.4-7.5 7.9-11.2 10.6-3.9 2.8-9.2 5.8-14 5.5-8-.5-10-8.6-8.8-15.3.1-.3.3-.5.6-.6 6.3-.9 13-5.3 18-9 7.9-5.9 14.7-11.8 20.5-17.5 6.2-6.4 10.6-10.7 13.1-13z" class="st1"/><path id="path35" d="m170.5 270.535-34.8 48.5c-2.3-.1-3.8-.2-4.4-.5-9.5-4.8-11.8-17.8-8.9-27.5 3.8-12.4 13.2-24.3 26-28.5 6-2 12.7-.7 17.5 2.7 1.5.9 3 2.7 4.6 5.3z" class="st1"/><path id="path37" d="M231.3 287.235c3.3 9.4 4.6 18.2 4 26.5-.3 3.8-1.9 7.8-5 11.9-2.3 3.1-6.3 4.7-10.2 4.5-6.3-.4-11.4-2.6-15.2-6.7-2.7-2.9-4.8-7.3-6.2-13.2-2.4-9.5-2.3-19.1.1-28.9.8-1.9 1.7-3.7 2.7-5.5 2.6-4.9 8.2-9.3 13.9-7.8 5.4 1.4 10 7.2 12.4 11.8 1.2 2.4 2.4 4.9 3.5 7.4z" class="st1"/><path id="path39" d="m135.7 319.135 34.8-48.5c.9-1.1 1.9-1.3 3-.5.8.6 1 1.8.4 2.6l-34.8 48.5c-.5.8-1.6 1-2.4.5-1.1-.5-1.4-1.4-1-2.6z" class="st0"/><path id="path41" d="M198.8 281.335c-2.5 9.8-2.5 19.4-.1 28.9 1.5 5.9 3.5 10.3 6.2 13.2 3.8 4.1 8.9 6.3 15.2 6.7 3.9.2 7.9-1.4 10.2-4.5 3-4.1 4.7-8 5-11.9.6-8.3-.7-17.1-4-26.5 3.8 8.1 5.8 16.6 6.2 25.5.2 3.3-.1 6.1-.7 8.4-2.2 8.4-7.7 15.9-17.3 15.1-21.4-1.8-24.7-24.4-23.7-41.2.3-5.3 1.3-9.9 3-13.7z" class="st0"/></svg>