<svg xmlns="http://www.w3.org/2000/svg" xml:space="preserve" id="Layer_1" x="0" y="0" version="1.1" viewBox="0 0 247.222 262.585"><style id="style235" type="text/css">.st0{fill:#232323}.st1{fill:#e6e6e6}.st2{fill:#ccc}.st3{fill:#fff}.st5{fill:#d851a7}</style><path id="path237" d="m104.4 54.344-.4.1c-.2 0-.3 0-.4-.2v-46.6c0-.3-.2-.5-.5-.5h-.1c-10.9 1.3-21.9 1.2-32.8-.3-6.2-.9-11.6-3-16-6.3-.1-.1-.1-.2-.1-.3l.2-.2s.1-.1.1 0c4.7 3.4 10.3 5.5 16.8 6.5 10.5 1.5 21.3 1.5 32.3.1.4-.1.8.2.8.6v.1l.3 46.9s-.1.1-.2.1z" class="st0"/><path id="path239" d="M77.3 13.744c-2.4.4-4.9.7-7.4.8-7 .3-13.6.3-19.7 0-7.4-.4-16.2-2.1-21.4-7-.1-.1-.1-.2 0-.3.1-.1.1-.1.2 0 4.6 3.3 9.8 5.4 15.8 6.2 1.9.3 3.7.4 5.5.5 6.7.4 13.6.4 20.6 0 2.4-.1 4.7-.4 7.1-.9.4-.1.8.2.9.6v33.9c0 .2-.1.3-.3.3h-.3c-.2 0-.4-.2-.4-.4.3-3.4.4-5.7.4-7.2-.2-9-.2-17.6-.2-25.9 0-.4-.3-.7-.8-.6z" class="st0"/><path id="path241" d="M233.6 34.044c-5.2 11.1-11.6 20.5-19.2 28.2-19.6 19.7-44.4 30.1-72.3 33.1l-11-7.8c13-15.3 27.2-29.1 42.4-41.4 12.2-9.9 25.4-18.2 39.5-24.9 7.2-3.5 17.3-7.3 20.4 3.8.8 3 .9 6 .2 9z" class="st1"/><path id="path243" d="M233.6 34.044c-.6 5.6-2.2 10.8-4.6 15.8-8.7 17.6-21.7 31.6-39.1 42-3.7 2.2-6.6 3.7-8.7 4.7-8.4 3.9-17.2 6.9-26.3 9-.3.1-.5.3-.5.5 0 .3-.2.5-.5.6l-11.8-11.3c27.9-3 52.7-13.3 72.3-33.1 7.6-7.7 14-17.1 19.2-28.2z" class="st2"/><path id="path245" d="M127.2 67.244c-.3 12.7-6.1 22.6-17.3 29.6-5.7 1.5-11.3 1.4-16.9-.2-10.9-3.1-17.2-10.6-16.1-22.1 0-.5-.2-.7-.7-.7-10.5.8-20.9.4-31.2-1.3-.3-.1-.7-.2-1-.5-1.5-13.2 15-21.3 25.5-23.1 7.9-1.3 18 1.1 23.8 7.2.2.3.6.4 1 .3 11.1-3 25.1 2.5 32.9 10.8zm-51-4.3 2.7-2.6c.4-.4.4-.8 0-1.2-6.5-5.6-16.1 1.3-12.4 8.9 2 4.2 5.4 5.5 10.2 4.2.3-.1.5-.3.6-.6.7-2.6 1.9-5 3.7-7.4.5-.6.5-1.6-.2-2.1-.2-.2-.5-.2-.8 0-1.1.5-2.2 1-3.4 1.3-.7 0-.8-.1-.4-.5zm37 8.8c.8-.9 1.7-1.9 2.7-2.7.4-.3.4-.7 0-1-2.9-2.4-5.9-2.8-9.1-1.3-6.6 3.3-5.1 13.4 2.3 14.6 6.1 1 10.3-4.5 8.7-10.3-.1-.2-.3-.4-.6-.3l-3.7 1.4c-.6.2-.7.1-.3-.4z" class="st3"/><path id="path247" d="M44 72.044c.3.3.7.4 1 .5 10.3 1.7 20.7 2.1 31.2 1.3.5 0 .7.2.7.7-1.1 11.5 5.2 19.1 16.1 22.1 5.6 1.6 11.2 1.6 16.9.2 5.9-.8 10.9-2.9 15-6.3 3.5 1 6.8 2.2 9.8 3.5 2.3 1 5.2 3.6 2.9 6.1-.2.2-.2.5 0 .7 8 5.7 14.8 12.8 20.4 21.2l-9.1-6.7c-.8-.6-1.4-.4-1.7.6-.1.5.2 1.1 1.1 1.9 5.8 5 11.1 9.7 16 14.1 5.8 12.9 6.2 25.4 1 37.3-2.6 6.1-6.5 11.9-11.4 17.4-9.5 10.3-21.2 16.2-35.3 17.6-5.1-3.3-8.7-8-10.7-13.9-2.9-8.5-3-17-.5-25.7 3.4-11.6 3.8-22.5-.8-34l-1.4-2.9c-4.2-8.4-11.4-15.6-18.7-21-14.2-10.6-29.5-18.2-46-22.8-15.8-4.5-30.1-10.6-40.1-24.1-.4-.5-.5-1.1-.3-1.8.5-1.5 1.8-1.5 2.9-.8 12.5 7.6 26 12.6 40.7 15.1.3 0 .3 0 .3-.3zm87.8 31.8c1.3.2 2.6 0 3.8-.5 0 0 .1 0 .1-.1l-.1-.3c0-.2-.2-.4-.4-.4-3.8 0-6.1-1.3-6.7-4.1-.1-.6-.3-.6-.4 0-.3 1.5.1 2.7 1.2 3.9.4.4.4 1 .1 1.5-4.6 6.4-16.2 5.3-22.9 4.4-2.5-.3-2.6 0-.3 1 2.2 1 4.7 1.5 7.5 1.7 6.2.3 15.3.4 17.5-6.7 0-.3.2-.5.6-.4z" style="fill:#ec6bb7"/><path id="path249" d="M76.5 63.344c1.2-.3 2.3-.8 3.4-1.3.3-.1.5-.1.8 0 .7.5.7 1.4.2 2.1-1.7 2.4-3 4.8-3.7 7.4-.1.3-.3.5-.6.6-4.8 1.4-8.2 0-10.2-4.2-3.6-7.6 6-14.5 12.4-8.9.4.4.5.8 0 1.2l-2.7 2.6c-.3.5-.2.6.4.5z" class="st0"/><path id="path251" d="m113.5 72.144 3.7-1.4c.2-.1.5 0 .6.3 1.6 5.8-2.6 11.3-8.7 10.3-7.4-1.2-8.9-11.3-2.3-14.6 3.2-1.6 6.2-1.1 9.1 1.3.4.3.4.7 0 1-1 .9-1.9 1.8-2.7 2.7-.4.5-.3.6.3.4z" class="st0"/><path id="path253" d="M127.2 67.244c5.2 5.5 5.3 12.6 1.6 19l-3.9 4.4c-4.1 3.4-9.1 5.5-15 6.3 11.2-7.1 17-16.9 17.3-29.7z" class="st1"/><path id="path255" d="M128.8 86.244c.7.6 1.4 1 2.2 1.3l11 7.8 11.8 11.3c.1-.1.2 0 .3.4 4.4 5.2 8.2 10.7 11.4 16.4l3.1 7-10.5-8.4c-5.6-8.5-12.4-15.6-20.4-21.2-.2-.2-.3-.5-.1-.7 2.3-2.5-.6-5.1-2.9-6.1-3-1.3-6.3-2.4-9.8-3.5z" class="st5"/><path id="path257" d="M189.8 91.844c17.4.7 35.1 3.1 51.2 9.4 5.4 2.1 7.9 6.4 5 11.9-1.3 2.5-3.2 4.5-5.5 5.9-2 .6-4 1.3-5.9 1.9-2.1.7-4.2 1.3-6.1 1.8-6.6 1.5-12.7 2.3-18.2 2.2-20-.2-38.2-6.1-54.7-17.9-.3-.2-.8-.2-1.5.1-.1-.4-.2-.6-.3-.4.3-.2.5-.4.5-.6 0-.3.2-.5.5-.5 9.1-2 17.9-5 26.3-9 2.1-1.1 5-2.7 8.7-4.8z" class="st1"/><path id="path259" d="M131.1 104.244c-2.2 7.2-11.2 7.1-17.5 6.7-2.9-.2-5.4-.7-7.5-1.7-2.3-1-2.2-1.4.3-1 6.7.9 18.3 2 22.9-4.4.3-.5.3-1.1-.1-1.5-1.1-1.1-1.5-2.4-1.2-3.9.1-.6.3-.6.4 0 .7 2.7 2.9 4.1 6.7 4.1.3 0 .4.1.4.4l.1.3s0 .1-.1.1c-1.2.5-2.5.7-3.8.5-.3-.1-.5.1-.6.4z" class="st0"/><path id="path261" d="M154.2 107.144c.7-.3 1.2-.3 1.5-.1 16.4 11.8 34.7 17.7 54.7 17.9 5.5 0 11.6-.7 18.2-2.2 1.9-.4 3.9-1 6.1-1.8 1.9-.7 3.9-1.3 5.9-1.9-1.7 1.7-3.4 2.9-5 3.7-22.1 11.1-47.4 10.3-70 .8-3.3-5.8-7-11.2-11.4-16.4z" class="st2"/><path id="path263" d="m158.1 122.144 10.5 8.4c8.3 6.4 16.7 12.8 25.1 19.3 1.9 1.4 3 4 3.6 6.2 4 15.2 11 35 22.8 44.7.5.4.4.6-.2.6-14.3.4-26.2-6-26.9-21.6-.3-8.1-.6-16.2-.9-24.2 0-.5-.2-.9-.6-1.2l-18.1-15c-.2-.2-.5-.3-.8-.4-.3-.1-.6-.2-1-.5-1.4-2-3.8-4.1-7.2-6.4-4.9-4.4-10.3-9.1-16-14.1-.9-.7-1.2-1.4-1.1-1.9.3-1 .9-1.2 1.7-.6z" class="st0"/><path id="path265" d="m105.3 127.644 1.4 2.9c-8 9.6-15.8 19.1-23.4 28.6-2.1 2.6-6.5-1.9-7.8-3.5-5.3-6.3-10.5-13.2-16.5-19.1-7.4-7.4-16.4-10.1-27-7.4-.5.1-.6 0-.3-.5 3.6-5.7 8.7-8.7 15.4-9.1 5.3-.3 10 3.2 13.6 6.8 7.6 7.5 14.5 16.4 20.6 26.5.3.4.6.5.9.1z" class="st0"/><path id="path267" d="M164.4 131.944c3.4 2.3 5.8 4.4 7.2 6.4 4.5 16.5 4.2 32.3-1 47.4-1.5 4.3-4.1 8.6-7.8 12.9-3.2 3.7-7.2 6.5-11.9 8.5-9.7 4.1-23.1 3.1-32.3-3 14-1.4 25.8-7.3 35.3-17.6 5-5.5 8.8-11.2 11.4-17.4 5.3-11.8 5-24.2-.9-37.2z" class="st5"/><path id="path269" d="m124.6 214.444-9.8 13.8c-.2.3-.4.5-.8.6-7.2 2.5-17.6 4.4-24.1-.8 2.1-5.4 5.3-10 9.6-13.9 5.7-5.1 13.3-7.9 20.4-3.7 1.6 1 3.2 2.3 4.7 4z" class="st0"/><path id="path271" d="M169.3 228.844c0 .5.3 1.6.8 3.2.7 2 .2 4.1-1.2 6.2-3.9 5.6-11.3 7.5-17.3 3.8-2.8-1.7-7.3-5.2-7.8-8.2-.4-2.7-.1-6.1.9-10.4 1.1-3.2 2.6-5.7 4.5-7.6 4.4-4.6 9.5-3.4 13.4.9 1.8 1.9 3 3.6 3.6 5 1 2.3 2 4.7 3.1 7.1z" class="st0"/><path id="path273" d="m98.6 250.744 12.8-17.8c.3-.5.2-.6-.3-.5-7.4 1.9-14.9 2.1-22.5.5-.7-2.2-.3-3.8 1.3-4.9 6.5 5.1 16.9 3.2 24.1.8.3-.1.6-.3.8-.6l9.8-13.8c.9-.7 1.8-.5 2.6.7.2.3.2.6 0 .9l-26 36.3c-.2.3-.5.4-.8.3-1.2-.4-1.8-1.1-1.8-1.9z" class="st3"/><path id="path275" d="M144.6 223.344c-1 4.3-1.4 7.8-.9 10.4.5 3 5 6.5 7.8 8.2 6 3.7 13.4 1.8 17.3-3.8 1.5-2.1 1.9-4.2 1.2-6.2-.5-1.6-.8-2.7-.8-3.2 2.2 4.8 3.5 10.6 3.8 17.5.3 5.5-1.5 10.1-5.2 13.8-1.4 1.4-2.9 2.2-4.6 2.4-10.8 1.2-17.2-5.4-19.5-15.2-1.9-8.3-1.6-16.3.9-23.9zm26.3 18.4c-7.2 9.4-18.4 7.5-25.9-.4-.6-.6-.8-.5-.7.4 1.4 8.7 5.9 15.6 15.5 16.4 9 .8 12.2-9.1 11.7-16.3-.1-.5-.3-.5-.6-.1z" class="st3"/><path id="path277" d="M98.6 250.744c-8-1.9-11.1-10.5-10-17.8 7.6 1.6 15.1 1.5 22.5-.5.6-.2.7 0 .3.5z" class="st0"/><path id="path279" d="M145 241.344c7.5 7.8 18.8 9.8 25.9.4.3-.4.5-.4.6.2.6 7.1-2.7 17-11.7 16.3-9.6-.8-14.1-7.7-15.5-16.4-.2-1 .1-1.1.7-.5z" class="st0"/></svg>