<svg xmlns="http://www.w3.org/2000/svg" viewBox="0 0 66.489 67.711"><path fill="#5db1c6" d="M49.139 6.631c3.74.16 8.86-.68 12.08.85q5.15 2.45 5.16 8.56.06 17.5.11 40.33c.01 6-2.41 11.3-9.04 11.29q-23.36-.05-46.84.05c-6.26.02-10.56-3.02-10.58-9.94q-.07-20.49.03-41.51c.04-6.63 4.39-9.85 10.64-9.64q3.5.12 6.73.02.49-.02.49-.51v-3.93a1.78 1.76 67.9 0 1 .54-1.3q1.09-1.05 2.08-.84 1.7.35 1.95 2 .28 1.83-.03 3.82a.68.67 4.7 0 0 .67.78h20.17q.62 0 .62-.63l-.01-3.28q-.01-1.72 1.48-2.56.56-.33 1.17-.09 2.06.82 2.03 3.04l-.04 2.86q-.01.6.59.63zm-31.05 9.67q-.36-1.8-.13-4.14.08-.81-.74-.82l-8.49-.03a4.03 4.04.1 0 0-4.05 4.04v10.48q0 .66.66.66l56.09.01q.35 0 .35-.35l-.04-10.75a4.09 4.08 89.9 0 0-4.08-4.08l-8.43.01q-.64 0-.64.64l-.03 3.37q-.01 2.11-2.07 2.59-.46.11-.91-.11-1.67-.8-1.67-2.65v-3.3q0-.53-.53-.53l-20.13-.02q-.7 0-.68.7c.05 2.17.64 6.05-2.68 5.86a1.96 1.95 86.2 0 1-1.8-1.58zm43.36 14.86H4.969a.32.32 0 0 0-.32.32v26.73a5.07 4.81 0 0 0 5.07 4.81h46.98a5.07 4.81 0 0 0 5.07-4.81v-26.73a.32.32 0 0 0-.32-.32z"/></svg>