<?xml version="1.0" encoding="UTF-8"?>
<svg xmlns="http://www.w3.org/2000/svg" xmlns:xlink="http://www.w3.org/1999/xlink" width="0" height="0">
<symbol id="luggage" viewBox="0 0 24 24"><g fill="none" fill-rule="evenodd"><path d="M24 0v24H0V0h24ZM12.594 23.258l-.012.002-.071.035-.02.004-.014-.004-.071-.036c-.01-.003-.019 0-.024.006l-.004.01-.017.428.005.02.01.013.104.074.015.004.012-.004.104-.074.012-.016.004-.017-.017-.427c-.002-.01-.009-.017-.016-.018Zm.264-.113-.014.002-.184.093-.01.01-.003.011.018.43.005.012.008.008.201.092c.012.004.023 0 .029-.008l.004-.014-.034-.614c-.003-.012-.01-.02-.02-.022Zm-.715.002a.023.023 0 0 0-.027.006l-.006.014-.034.614c0 .012.007.02.017.024l.015-.002.201-.093.01-.008.003-.011.018-.43-.003-.012-.01-.01-.184-.092Z"/><path fill="currentColor" d="M14 4a3 3 0 0 1 3 3h3a2 2 0 0 1 2 2v10a2 2 0 0 1-2 2H4a2 2 0 0 1-2-2V9a2 2 0 0 1 2-2h3a3 3 0 0 1 3-3h4Zm1 5H9v10h6V9Zm5 0h-3v10h3V9ZM7 9H4v10h3V9Zm7-3h-4a1 1 0 0 0-.993.883L9 7h6a1 1 0 0 0-.883-.993L14 6Z"/></g></symbol>
<symbol id="panel-left-close" viewBox="0 0 24 24" fill="none" stroke="currentColor" stroke-width="2" stroke-linecap="round" stroke-linejoin="round" class="lucide lucide-panel-left-close"><rect x="3" y="3" rx="2" ry="2"/><path d="M9 3v18"/><path d="m16 15-3-3 3-3"/></symbol>
<symbol id="panel-left-open" viewBox="0 0 24 24" fill="none" stroke="currentColor" stroke-width="2" stroke-linecap="round" stroke-linejoin="round" class="lucide lucide-panel-left-open"><rect x="3" y="3" rx="2" ry="2"/><path d="M9 3v18"/><path d="m14 9 3 3-3 3"/></symbol>
<symbol id="plane-landing" viewBox="0 0 24 24" fill="none" stroke="currentColor" stroke-width="2" stroke-linecap="round" stroke-linejoin="round"><path d="M2 22h20"/><path d="M3.77 10.77 2 9l2-4.5 1.1.55c.55.28.9.84.9 1.45s.35 1.17.9 1.45L8 8.5l3-6 1.05.53a2 2 0 0 1 1.09 1.52l.72 5.4a2 2 0 0 0 1.09 1.52l4.4 2.2c.42.22.78.55 1.01.96l.6 1.03c.49.88-.06 1.98-1.06 2.1l-1.18.15c-.47.06-.95-.02-1.37-.24L4.29 11.15a2 2 0 0 1-.52-.38Z"/></symbol>
<symbol id="plane-takeoff" viewBox="0 0 24 24" fill="none" stroke="currentColor" stroke-linecap="round" stroke-linejoin="round" stroke-width="2"><path d="M2 22h20M17.66 17.4l2.36-.4 2-4-1.1-.55a2 2 0 0 0-1.8 0l-.17.1a2 2 0 0 1-1.8 0L16.02 12l3-6-.9-.45a2 2 0 0 0-2.09.2l-4.02 3a2 2 0 0 1-2.1.2L5.72 6.89a2.41 2.41 0 0 0-1.73-.17L3.02 7a1.4 1.4 0 0 0-.87 1.99l.38.76c.23.46.6.84 1.07 1.08l12.84 6.37a2 2 0 0 0 1.22.18z"/></symbol>
</svg>
