<svg xmlns="http://www.w3.org/2000/svg" viewBox="0 0 136.87 94.903"><path fill="#58a7bc" d="m57.64 39.593-.09 5.41a2.28 2.28 0 0 1-1.73 2.17q-.57.14-1.15.06-2.42-.35-2.44-2.8l-.12-15.61q0-.79-.79-.79H5.75a.36.36 0 0 0-.36.36l-.01 60.7q0 .46.46.46l50.19-.01q2.61 0 2.88 2.6.04.37-.09.72-.71 2.04-2.88 2.04H2.83A2.83 2.82 0 0 1 0 92.083v-66.63a2.81 2.81 0 0 1 2.81-2.81l48.76-.01q.63 0 .62-.63-.21-7.57.22-15.41c.45-8.1 11.37-8.95 13.94-1.36q1.08 3.2-1.76 4.5a2.13 2.12 66.3 0 1-2.85-1.12l-1.04-2.5a1.39 1.39 0 0 0-1.61-.81q-1.51.37-1.52 1.94-.02 7.4 0 14.82 0 .58.58.58h17.97a.39.39 0 0 0 .39-.38q.09-7.17-.03-13.87c-.21-11.94 15.5-10.19 14.14-.54a2.07 2.08 75.5 0 1-.82 1.38q-1.6 1.2-3.26.01a2.17 2.16 14.8 0 1-.91-1.55q-.15-1.35-1.03-2.07a1.67 1.67 0 0 0-2.72 1.29v15.22a.5.5 0 0 0 .5.5l51.75.01a2.74 2.74 0 0 1 2.74 2.74v67.01a2.5 2.51 0 0 1-2.5 2.51H81q-2.6 0-3.13-2.54-.1-.46.1-.88.93-1.94 3.08-1.94l50.24.01a.34.34 0 0 0 .34-.34v-60.51q0-.68-.68-.68l-48.52.03q-.61 0-.6.61.16 8.05-.07 16.1-.06 2.37-2.43 2.54-.37.02-.74-.09-1.94-.61-1.99-2.65l-.12-5.05q-.02-.71-.72-.71l-17.34.02q-.77 0-.78.77zm18.9-11.04a.53.53 0 0 0-.53-.53h-17.9a.53.53 0 0 0-.53.53v4.3a.53.53 0 0 0 .53.53h17.9a.53.53 0 0 0 .53-.53z"/><path fill="#58a7bc" d="M78.54 56.073c6.51 3.2 11.75 1.94 17.84-.91q3.45-1.62 7.89-1.41 2.34.11 2.64 2.43.06.46-.11.9-.67 1.78-2.58 1.84c-3.98.11-6.51 1.49-10.89 3.23q-8.02 3.2-18-1.68-4.26-2.09-10.06-1.33-.08.01-6.63 2.66-9.11 3.69-19.12-1.35-2.81-1.41-6.75-1.49-2.05-.03-2.61-2-.1-.34-.07-.67.17-2.47 2.63-2.55c3.99-.14 7.41.93 10.9 2.69 4.06 2.04 9.54 2.07 13.36.24 7.16-3.44 14.18-4.24 21.56-.6zM36.25 74.733c5.79 2.41 14.04 1.63 19.77-.55q12.54-4.78 24.94 0c6.13 2.36 13.91 2.82 20.13.41 4.39-1.7 8.75-2.86 13.53-2.72q2.55.08 2.77 2.62.03.38-.08.74-.62 1.97-2.69 1.98-5.5.04-8.31 1.2-14.05 5.82-27.1.81c-6.26-2.41-13.64-2.83-19.97-.54-2.78 1.01-5.51 2.05-8.48 2.47q-9.84 1.37-18.41-2.13-4.59-1.88-9.92-1.78-2.43.05-2.89-2.33-.06-.27-.02-.54.35-2.49 2.86-2.53 6.71-.09 13.87 2.89z"/><circle cx="68.47" cy="92.153" r="2.68" fill="#58a7bc"/></svg>