<svg xmlns="http://www.w3.org/2000/svg" viewBox="0 0 49.452 60.806"><path fill="#58a7bc" d="M46.667 39.825q-4.61 12.27-14.61 18.69-8.09 5.19-16.7-1.38c-8.76-6.69-13.77-16.9-15.13-27.87-1.45-11.75 4.1-22.54 14.94-27.28 6.81-2.99 15.16-2.61 21.56 1.19 13.64 8.12 15.18 22.68 9.94 36.65zm-11.83-32.78c-13.56-7.68-30.61 2.05-30.55 17.94.04 11.55 5.98 24.87 16.61 30.51q4.22 2.24 8.73-.52c14.5-8.88 23.78-37.41 5.21-47.93z"/><path fill="#58a7bc" d="M35.367 24.745a10.62 10.62 0 0 1-10.62 10.62 10.62 10.62 0 0 1-10.62-10.62 10.62 10.62 0 0 1 10.62-10.62 10.62 10.62 0 0 1 10.62 10.62zm-4.28.01a6.33 6.33 0 0 0-6.33-6.33 6.33 6.33 0 0 0-6.33 6.33 6.33 6.33 0 0 0 6.33 6.33 6.33 6.33 0 0 0 6.33-6.33z"/></svg>