<svg xmlns="http://www.w3.org/2000/svg" viewBox="0 0 53.77 43.825"><path fill="#55a7bf" d="m24.68 4.725.04-2.76a1.95 1.95 0 0 1 1.2-1.77q.6-.25 1.16-.18 2.13.27 2 2.41-.19 2.96.3 3.01 12.89 1.32 20.04 11.65c3.45 4.98 8.86 19.6-2.54 19.53q-19.78-.12-40.92-.04c-4.32.02-6.38-3.61-5.89-7.66 1.61-13.07 10.87-21.68 23.96-23.45q.64-.09.65-.74zM5.15 32.385h43.52a.87.87 0 0 0 .87-.87v-.29a22.39 21.6 0 0 0-22.39-21.6h-.48a22.39 21.6 0 0 0-22.39 21.6v.29a.87.87 0 0 0 .87.87z"/><rect width="53.66" height="4.32" x=".061" y="39.505" fill="#55a7bf" rx="2.13"/></svg>