<?xml version="1.0" encoding="UTF-8"?>
<svg xmlns="http://www.w3.org/2000/svg" xmlns:xlink="http://www.w3.org/1999/xlink" width="0" height="0">
<symbol id="airplane" viewBox="0 0 32 32" enable-background="new 0 0 32 32" xml:space="preserve" fill="currentColor"><g id="SVGRepo_bgCarrier" stroke-width="0"></g><g id="SVGRepo_tracerCarrier" stroke-linecap="round" stroke-linejoin="round"></g><g id="SVGRepo_iconCarrier"> <g id="Airplane_x2C__plane_x2C__flight_x2C__takeoff"> <g id="XMLID_102_"> <line fill="none" id="XMLID_886_" stroke="currentColor" stroke-linecap="round" stroke-linejoin="round" stroke-miterlimit="10" x1="1.5" x2="5.295" y1="20.71" y2="19.474"></line> <line fill="none" id="XMLID_885_" stroke="currentColor" stroke-linecap="round" stroke-linejoin="round" stroke-miterlimit="10" x1="1.5" x2="7.295" y1="8.728" y2="6.774"></line> <line fill="none" id="XMLID_884_" stroke="currentColor" stroke-linecap="round" stroke-linejoin="round" stroke-miterlimit="10" x1="4.529" x2="10.295" y1="24.652" y2="22.774"></line> <line fill="none" id="XMLID_123_" stroke="currentColor" stroke-linecap="round" stroke-linejoin="round" stroke-miterlimit="10" x1="30.4" x2="30.5" y1="30.5" y2="30.5"></line> <line fill="none" id="XMLID_122_" stroke="currentColor" stroke-linecap="round" stroke-linejoin="round" stroke-miterlimit="10" x1="1.5" x2="28.5" y1="30.5" y2="30.5"></line> <path d=" M14.398,18.689l-1.339,3.767c-0.139,0.391,0.231,0.771,0.625,0.643l1.258-0.408c0.1-0.033,0.188-0.096,0.249-0.181l5.854-8.01" fill="none" id="XMLID_144_" stroke="currentColor" stroke-linecap="round" stroke-linejoin="round" stroke-miterlimit="10"></path> <path d=" M25.597,8.714l-5.506,1.789l-7.974-5.61c-0.126-0.096-0.29-0.116-0.442-0.066l-1.531,0.497c-0.304,0.1-0.437,0.468-0.265,0.738 l4.03,6.45l-6.115,1.986c-0.637,0.208-1.329,0.086-1.854-0.333l-1.783-1.408c-0.129-0.104-0.306-0.132-0.467-0.079l-0.97,0.314 c-0.333,0.109-0.456,0.506-0.24,0.783l1.948,2.532c1.3,1.67,3.499,2.354,5.505,1.702l19.668-6.391 c0.685-0.223,1.057-0.954,0.834-1.638C30.3,9.563,29.967,9.25,29.547,9.123l-1.632-0.458C27.152,8.451,26.349,8.47,25.597,8.714z" fill="none" id="XMLID_1011_" stroke="currentColor" stroke-linecap="round" stroke-linejoin="round" stroke-miterlimit="10"></path> </g> </g> </g></symbol>

<symbol id="pants" fill="currentColor" viewBox="0 0 50.001 50.001"><path d="M48.8.975a1 1 0 0 0-1-.975H2.2a1 1 0 0 0-1 .975l-1.2 48A.999.999 0 0 0 1 50h17.94c.458 0 .857-.311.97-.755L25 29.085l5.091 20.16a1 1 0 0 0 .97.755H49a1 1 0 0 0 1-1.025l-1.2-48zM18.161 48H2.026l.14-5.612c.082.03.162.066.254.074l16.497 1.373a1.2 1.2 0 0 0 .084.003c.077 0 .148-.025.221-.042L18.161 48zM25 24c-.458 0-.857.311-.97.755l-4.38 17.346a.978.978 0 0 0-.567-.26L2.586 40.469a.982.982 0 0 0-.373.041L3.176 2h43.648l.964 38.564a.977.977 0 0 0-.872-.409L30.42 41.529c-.072.006-.133.038-.2.058l-4.25-16.831A1 1 0 0 0 25 24zm6.84 24-1.133-4.488 16.377-1.363a.98.98 0 0 0 .734-.447L47.975 48H31.84z"/><path d="M31.496 13.443c-.007-1.054-.35-2.245-.964-3.354A7.79 7.79 0 0 0 28.873 8h17.141V6H4v2h15.475c-.724.666-1.403 1.53-1.974 2.561-.792 1.429-1.232 2.958-1.241 4.306-.011 1.566.554 2.745 1.59 3.319.416.231.874.345 1.359.345.723 0 1.505-.254 2.297-.756 1.138-.722 2.201-1.906 2.993-3.335.179-.322.333-.651.476-.98.6 1.01 1.369 1.854 2.198 2.38.629.399 1.271.602 1.865.602.406 0 .792-.095 1.137-.286.849-.471 1.33-1.46 1.321-2.713zm-8.747.027c-.623 1.125-1.467 2.078-2.315 2.616-.659.417-1.264.547-1.615.351h-.001c-.355-.197-.565-.779-.56-1.556.007-1.004.368-2.225.992-3.35 1.138-2.054 2.681-3.052 3.551-3.052.147 0 .276.029.38.086.355.197.565.779.56 1.556-.006 1.004-.368 2.225-.992 3.349zm6.456.937c-.001 0-.001 0 0 0-.147.084-.505.034-.961-.256-.604-.382-1.207-1.066-1.656-1.877-.448-.809-.709-1.683-.714-2.398-.004-.543.145-.869.292-.951a.365.365 0 0 1 .173-.036c.184 0 .459.083.788.292.604.383 1.207 1.067 1.655 1.877.449.81.709 1.684.715 2.398.003.543-.144.869-.292.951z"/></symbol>
<symbol id="tickets" fill="currentColor" viewBox="0 0 512.005 512.005"><path d="M511.513 223.904 452.508 42.326c-1.708-5.251-7.348-8.125-12.602-6.42L6.912 176.612c-5.252 1.707-8.126 7.349-6.42 12.602l27.93 85.949c-.008.168-.025.333-.025.503v190.925c0 5.522 4.478 10 10 10H493.68c5.522 0 10-4.478 10-10V275.666c0-5.522-4.478-10-10-10h-78.32l89.734-29.16c5.251-1.707 8.125-7.349 6.419-12.602zm-27.834 61.762v170.925H48.396V285.666h55.392v111.408c0 5.522 4.478 10 10 10s10-4.478 10-10V285.666H483.679zm-133.034-20H46.365l-23.762-73.123 52.711-17.129 20.162 61.276c1.385 4.208 5.296 6.877 9.497 6.877 1.036 0 2.09-.162 3.128-.504 5.246-1.727 8.1-7.378 6.373-12.625l-20.139-61.206L436.577 58.017l52.825 162.558-138.757 45.091z"/><path d="M421.405 101.849c-1.708-5.251-7.349-8.124-12.602-6.42l-260.728 84.727c-5.252 1.707-8.126 7.349-6.42 12.602a10.005 10.005 0 0 0 9.509 6.912c1.024 0 2.066-.159 3.093-.492l260.728-84.727c5.252-1.707 8.127-7.349 6.42-12.602zM377.434 166.804l49.352-16.037c5.252-1.707 8.126-7.349 6.42-12.602-1.708-5.252-7.349-8.125-12.602-6.42l-49.352 16.037c-5.252 1.707-8.126 7.349-6.42 12.602a10.005 10.005 0 0 0 9.509 6.912 10.02 10.02 0 0 0 3.093-.492c-2.069.492-1.026.333 0 0zM419.143 212.741a10.005 10.005 0 0 0 9.509 6.912 10.02 10.02 0 0 0 3.093-.492l15.617-5.075c5.252-1.707 8.127-7.349 6.42-12.602-1.708-5.252-7.348-8.126-12.602-6.42l-15.617 5.075c-5.252 1.707-8.127 7.349-6.42 12.602zM390.685 211.473l-15.618 5.075c-5.252 1.707-8.127 7.349-6.42 12.602 1.373 4.226 5.293 6.912 9.509 6.912 1.023 0 2.065-.159 3.093-.492l15.618-5.075c5.252-1.707 8.126-7.349 6.42-12.602-1.706-5.252-7.343-8.125-12.602-6.42zM251.132 186.817l-91.255 29.654c-5.252 1.707-8.127 7.349-6.42 12.602a10.005 10.005 0 0 0 9.509 6.912 10.02 10.02 0 0 0 3.093-.492l91.255-29.654c5.252-1.707 8.126-7.349 6.42-12.602-1.709-5.252-7.35-8.125-12.602-6.42zM113.788 420.364c-5.522 0-10 4.478-10 10v3.916c0 5.522 4.478 10 10 10s10-4.478 10-10v-3.916c0-5.522-4.478-10-10-10zM161.554 322.663c0 5.522 4.478 10 10 10h274.148c5.522 0 10-4.478 10-10s-4.478-10-10-10H171.554c-5.522 0-10 4.477-10 10zM445.703 350.847H393.81c-5.522 0-10 4.478-10 10s4.478 10 10 10h51.893c5.522 0 10-4.478 10-10s-4.478-10-10-10zM445.703 417.427h-16.422c-5.522 0-10 4.478-10 10s4.478 10 10 10h16.422c5.522 0 10-4.478 10-10s-4.478-10-10-10zM392.608 417.427h-16.421c-5.522 0-10 4.478-10 10s4.478 10 10 10h16.421c5.522 0 10-4.478 10-10s-4.477-10-10-10z"/>/<path d="M267.507 350.847h-95.952c-5.522 0-10 4.478-10 10s4.478 10 10 10h95.952c5.522 0 10-4.478 10-10s-4.478-10-10-10z"/></symbol>
</svg>
