<svg xmlns="http://www.w3.org/2000/svg" viewBox="0 0 512 512"><path fill="#232323" d="M142.2 14.14q.25-.01.51-.04.31-.04.58.03 11.12 2.85 22.58 3.66 21 1.47 41.98-.4 4.77-.42 9.17-.56.78-.02.78.77l-.22 91.33q0 .13-.14.13h-.3a.33.32 0 0 1-.33-.32l-.16-90.1a.88.88 0 0 0-.96-.88q-24.46 2.38-49.18 1.01c-14.98-.84-32.41-4.53-44.36-14.05q-.36-.28-.07-.64l.18-.22q.12-.14.26-.02 7.91 6.71 17.94 9.48.54.15.9.5.35.33.84.32Z"/><path fill="#232323" d="M105.62 30.13q31.25 3.36 62.29-1.04a.9.89 85.9 0 1 1.02.89l.02 66.06a.51.5-3.2 0 1-.45.5l-.25.02q-.23.03-.23-.2l.05-65.35a.87.86-82.7 0 0-.64-.84q-1.25-.34-2.43.28-.41.21-.87.24-10.19.72-20.39 1.32-20.19 1.18-40.21-1.68c-10.96-1.56-21.63-4.52-29.88-11.8q-.14-.12-.04-.28l.13-.22q.1-.16.26-.05c3.92 2.88 7.83 5.75 12.5 7.39q11.11 3.89 19.12 4.76Z"/><path fill="#fff" d="M465.26 68.61q-16.09 36.46-45 62.42c-36.38 32.67-81.54 50.59-130.23 55.23q-9.76-7.76-20.99-14.68 29.21-34.51 62.89-63.94c28.59-24.98 59.73-47.02 94.48-63.26 10.74-5.02 25.84-11.86 34.64-.79q3.57 4.5 4.66 11.91 1 6.81-.45 13.11Z"/><path fill="#ccc" d="M465.26 68.61q.2 3.2-.29 5.31c-10.53 44.82-44.63 82.49-83.55 105.59q-32.08 18.93-70.19 26.8-9.2-10.04-21.2-20.05c48.69-4.64 93.85-22.56 130.23-55.23q28.91-25.96 45-62.42Z"/><path fill="#fff" d="M264.57 169.03q-2.74 4.16-7.4 8.3-14.67 11.12-34.2 13-.36.04-.5.23-.2.28-.54.29-9.02.3-12.69.12c-25.57-1.23-46.26-16.64-43.87-44.6a.65.65 0 0 0-.66-.71l-11.94.2q10.85-5.87 8.37-18.15-.33-1.68-1.93-1.07l-6.94 2.65q-2.14.82-.5-.78l5.68-5.55a.9.89-43.9 0 0 .03-1.26c-9.43-9.86-26.19-2.49-25.64 10.81q.34 8.31 8.67 13.3-7.6.11-11.65-.15-11.73-.77-25.73-3.05-.3-.04-.55-.4c-3.85-23.58 25.39-38.93 43.66-43.3 13.33-3.18 25.76-1.83 37.97 3.86 6.41 2.98 8.94 5.78 13.15 9.35a.98.94 57 0 0 .87.2q12.57-3.22 23.78-.89c24.54 5.09 61.46 26.13 42.56 57.6Zm-56.33-26.9q-3.69 5.61-1.19 11.43.06.12.37.54.25.34.23.77-.02.49.2.93 2.68 5.39 8.4 7.22l1.95.57q3.2.88 6.28.04l3.48-1.09q6.21-2.56 7.91-9l.2-.72q1.34-3.57.28-6.8l-.36-1.07q.15-1.07-.33-1.7-.33-.42-.86-.36-1.75.2-3.27 1.28l-5.3 2.19q-1 .41-.24-.36l6.47-6.56a.63.63 0 0 0-.04-.92q-9.51-8.22-19.63-1.68c-1.99 1.29-3.21 3.36-4.55 5.29Z"/><path fill="#fe60ba" d="M102.58 142.21q.25.36.55.4 14 2.28 25.73 3.05 4.05.26 11.65.15 5.97 1.06 12.26.05l11.94-.2a.65.65 0 0 1 .66.71c-2.39 27.96 18.3 43.37 43.87 44.6q3.67.18 12.69-.12.34-.01.54-.29.14-.19.5-.23 19.53-1.88 34.2-13 7.11 1.9 13.65 4.09c6.59 2.21 15.74 6.27 10.91 14.65q-.31.54.19.9c29.29 21.3 57.29 55.93 60.06 93.52q.89 12.07-3.06 23.64-10.22 6.01-20.41 8.61a.84.84 0 0 0-.43 1.36q5.07 5.93 12.23 7.63 2.23 1.57.91 3.66-.73 1.16-.76 1.22-9.42 17.72-25.16 31.92-25.49 22.98-59.9 25.66-7.44-4.49-13-12.37c-10.22-14.49-13.59-34.37-10.88-51.57q1.29-8.21 4.24-18.71c8.07-28.76 1.61-58.61-17.57-81.43l-4.4-4.7c-22.42-23.31-52.3-40.41-82.23-52.53-12.63-5.11-27.53-9.1-41.33-13.54-24.2-7.79-46.12-20.32-61.01-41.22-1.16-1.62-.97-2.93.29-4.32 1.66-1.84 2.69-1.47 4.69-.27q36.15 21.88 77.94 28.84.23.04.24.03.09-.04.2-.19Zm169.38 61.03q3.54.92 6.67-.81 3.32-1.84-.46-1.5c-3.17.28-7.41-.88-9.93-2.95q-2.48-2.04-2.79-4.4-.56-4.46-.96.02-.27 3.14 3.49 8.14a.34.34 0 0 1 .04.34c-6.54 14.08-34.51 11.54-46.2 9.36q-3.87-.72-.51 1.32c9.49 5.78 25.77 5.11 36.17 2.99q10.51-2.14 13.75-12.11.18-.55.73-.4Z"/><path fill="#232323" d="M152.77 145.86q-6.29 1.01-12.26-.05-8.33-4.99-8.67-13.3c-.55-13.3 16.21-20.67 25.64-10.81a.9.89-43.9 0 1-.03 1.26l-5.68 5.55q-1.64 1.6.5.78l6.94-2.65q1.6-.61 1.93 1.07 2.48 12.28-8.37 18.15ZM231.53 144.17q.83.06 2.47-.51 1.91-.66 1.99 1.29l.36 1.07-.28 6.8-.2.72c-1.69 2.06-2.44 4.47-4.31 6.13q-1.66 1.48-3.6 2.87l-3.48 1.09-6.28-.04-1.95-.57c-7.84-4.8-11.61-11.57-8.01-20.89 1.34-1.93 2.56-4 4.55-5.29q10.12-6.54 19.63 1.68a.63.63 0 0 1 .04.92l-6.47 6.56q-.76.77.24.36l5.3-2.19Z"/><path fill="#ccc" d="M208.24 142.13c-3.6 9.32.17 16.09 8.01 20.89q-5.72-1.83-8.4-7.22-.22-.44-.2-.93.02-.43-.23-.77-.31-.42-.37-.54-2.5-5.82 1.19-11.43ZM235.99 144.95q-.08-1.95-1.99-1.29-1.64.57-2.47.51 1.52-1.08 3.27-1.28.53-.06.86.36.48.63.33 1.7ZM236.35 146.02q1.06 3.23-.28 6.8l.28-6.8ZM235.87 153.54q-1.7 6.44-7.91 9 1.94-1.39 3.6-2.87c1.87-1.66 2.62-4.07 4.31-6.13ZM218.2 163.59l6.28.04q-3.08.84-6.28-.04Z"/><path fill="#ea44ab" d="m264.57 169.03 4.47 2.55q11.23 6.92 20.99 14.68 12 10.01 21.2 20.05l4.17 4.37q4.62 7.5 9.95 13.11l9.34 16.08q16.04 30.06 17.9 63.87l-13.67 10.39q3.95-11.57 3.06-23.64c-2.77-37.59-30.77-72.22-60.06-93.52q-.5-.36-.19-.9c4.83-8.38-4.32-12.44-10.91-14.65q-6.54-2.19-13.65-4.09 4.66-4.14 7.4-8.3Z"/><path fill="#fff" d="M381.42 179.51c31.36 1.49 61.87 5.53 91.58 15.54 7.07 2.38 15.87 5.88 18.15 13.56 2.53 8.5-5.62 18.12-12.42 23.18q-.43-.22-.93-.17-.51.06-.89.41-.61.58-1.4.39-.5-.12-.98.04c-3.82 1.32-7.76 3.12-11.38 4.16q-35.78 10.32-72.66 3.69-25.66-4.6-48.97-16.22-.48-.23-1.01-.4c-1.48-.48-1.98-1.56-3.8-.82q-9.68-6.86-21.31-12.19l-4.17-4.37q38.11-7.87 70.19-26.8Z"/><path fill="#232323" d="M271.23 203.64q-3.24 9.97-13.75 12.11c-10.4 2.12-26.68 2.79-36.17-2.99q-3.36-2.04.51-1.32c11.69 2.18 39.66 4.72 46.2-9.36a.34.34 0 0 0-.04-.34q-3.76-5-3.49-8.14.4-4.48.96-.02.31 2.36 2.79 4.4c2.52 2.07 6.76 3.23 9.93 2.95q3.78-.34.46 1.5-3.13 1.73-6.67.81-.55-.15-.73.4ZM315.4 210.68q11.63 5.33 21.31 12.19 22.24 14.21 42.96 29.87 6.89 5.27 10.29 8.55c5.69 5.48-2.42 21.65-5.41 27.94q-4.66 9.82-9.59 19.51-7.42 14.58-23.58 21.33-10.38 3.91-21.07 1.66-7.16-1.7-12.23-7.63a.84.84 0 0 1 .43-1.36q10.19-2.6 20.41-8.61l13.67-10.39q17.57-16.31 26.72-38.17.21-.52-.23-.86-11.16-8.48-22.14-16.9-.26-.21-1.24-.46.24-.42.03-.58-14.74-11.24-30.38-22.98-5.33-5.61-9.95-13.11Z"/><path fill="#ccc" d="M478.73 231.79c-22.37 17.55-55.57 23.43-83.23 22.13q-4.05-.19-15.83-1.18-20.72-15.66-42.96-29.87c1.82-.74 2.32.34 3.8.82q.53.17 1.01.4 23.31 11.62 48.97 16.22 36.88 6.63 72.66-3.69c3.62-1.04 7.56-2.84 11.38-4.16q.48-.16.98-.04.79.19 1.4-.39.38-.35.89-.41.5-.05.93.17ZM325.35 223.79q15.64 11.74 30.38 22.98.21.16-.03.58l-21.01-7.48-9.34-16.08Z"/><path fill="#232323" d="m203.79 225.41 4.4 4.7-58.45 34.77a.38.38 0 0 0-.12.52q13.75 21.65 31.5 39.98c8.48 8.75 19.61 17.56 31.5 21.41q1.59.52.47 1.76-5.7 6.31-13.6 7.75c-20.39 3.71-37.81-10.87-46.44-27.85q-6.42-12.65-12.68-25.37-4-8.15-4.5-14.81c-.32-4.25 3.77-8.07 7.75-10.66 18.88-12.28 39.75-22.39 60.17-32.2Z"/><path fill="#ea44ab" d="M351.38 330.07c-2.2 23.49-11.13 47.07-30.13 61.63-19.97 15.3-46.15 16.68-68.81 6.69q-3.33-1.47-7.04-4.2 34.41-2.68 59.9-25.66 15.74-14.2 25.16-31.92.03-.06.76-1.22 1.32-2.09-.91-3.66 10.69 2.25 21.07-1.66Z"/><path fill="#232323" d="M255.51 415.93q-8.58 11.99-17.62 24.22-.76 1.02-3.4 1.81c-13.57 4.01-32.75 7.64-44.13-2.21 8.68-21.83 34.2-49.02 59.62-32.44q4.48 2.91 5.53 8.62ZM340.65 437.21c2.37 7.93 6.34 15.76.27 23.22-9.1 11.17-22.81 12.69-34.5 5-5.36-3.53-13.07-9.76-13.19-16.68-.12-6.91.6-11.32 2.23-18.5q2.17-5.18 3.14-6.92c6.36-11.39 18.16-17.59 29.01-6.92 5.73 5.63 10.02 13.64 13.04 20.8Z"/><path fill="#fff" d="m208.86 480.86 23.26-32.35q.64-.88-.41-.58-21.55 6.08-43.75 1.12-2.23-5.62 2.4-9.3c11.38 9.85 30.56 6.22 44.13 2.21q2.64-.79 3.4-1.81 9.04-12.23 17.62-24.22c3.21-4.74 7.85-1.27 5.19 2.42q-23.92 33.14-47.79 66.31c-2.92 4.07-7.23.2-4.05-3.8ZM295.46 430.25c-1.63 7.18-2.35 11.59-2.23 18.5.12 6.92 7.83 13.15 13.19 16.68 11.69 7.69 25.4 6.17 34.5-5 6.07-7.46 2.1-15.29-.27-23.22 5.21 10.84 7.6 20.62 8.61 32.25q.78 8.94-.14 14.04c-2.08 11.59-10.53 23.71-23.89 22.73-22.33-1.64-30.93-18.41-33.29-38.39-1.46-12.36-1.35-25.9 3.52-37.59Zm29.88 67.23c16.7.35 22.85-18.79 21-32.14q-.09-.64-.46-.11c-13.74 19.52-36.8 14.98-51.04-.79q-.63-.7-.51.24c2.19 17.35 12.02 32.4 31.01 32.8Z"/><path fill="#232323" d="m208.86 480.86-3.28 1.48q-.46.2-.95.09c-13.68-3.14-18.63-21.42-16.67-33.38q22.2 4.96 43.75-1.12 1.05-.3.41.58l-23.26 32.35ZM346.34 465.34c1.85 13.35-4.3 32.49-21 32.14-18.99-.4-28.82-15.45-31.01-32.8q-.12-.94.51-.24c14.24 15.77 37.3 20.31 51.04.79q.37-.53.46.11Z"/></svg>