<?xml version="1.0" encoding="UTF-8"?>
<svg xmlns="http://www.w3.org/2000/svg" xmlns:xlink="http://www.w3.org/1999/xlink" width="0" height="0">
<symbol id="description" data-name="Layer 1" viewBox="0 0 136.88 109.6"><path d="M123.22 65.27v-4.93c-.01-.65.31-.97.95-.97h3.21c.32 0 .48.17.48.49v5.54c0 .22.18.39.4.39.09 0 .17-.03.24-.08l4.5-3.4c.21-.16.39-.13.54.08l2.07 2.9c.19.27.13.63-.13.83l-5.46 4.14c-.43.33-.43.65 0 .98l5.64 4.33c.23.18.26.39.08.63l-2.06 2.7a.68.68 0 0 1-.94.13l-4.29-3.23a.361.361 0 0 0-.58.29v28.49c-.01.33.15.49.48.49h8c.29-.01.53.23.53.52v3.53c0 .27-.22.48-.49.48H.94c-.62 0-.93-.31-.93-.93v-2.5c0-.6.48-1.09 1.08-1.09h7.33c.41 0 .75-.33.75-.74L9.13 76.2c0-.24-.2-.44-.44-.44-.09 0-.18.03-.26.09l-3.98 3.01c-.49.37-.93.32-1.31-.17l-1.63-2.14a.925.925 0 0 1 .17-1.3l5.46-4.05c.22-.16.26-.47.09-.69a.382.382 0 0 0-.09-.09l-5.47-4.09a.928.928 0 0 1-.19-1.3s0-.01.01-.02l1.73-2.23c.33-.41.7-.46 1.13-.15l4.07 3.01a.418.418 0 0 0 .67-.33l.14-4.93c.02-.75.4-1.09 1.15-1.04l2.47.17c.52.04.78.32.78.84l.02 4.83c0 .27.21.48.48.48.1 0 .2-.03.28-.09l3.76-2.71c.77-.55 1.43-.44 1.98.34l.83 1.19c.69.99.55 1.83-.44 2.52l-4.76 3.35a.61.61 0 0 0-.01.98l4.75 3.41c.93.67 1.09 1.49.48 2.46l-.62.98c-.69 1.11-1.55 1.26-2.58.44l-3.41-2.73a.463.463 0 0 0-.65.08c-.06.08-.1.18-.1.29l.04 28.18c0 .45.22.68.67.68l10.05.08c.32 0 .58-.25.59-.57v-.01c.25-32.44.21-61.83-.08-90.21 0-.34-.27-.61-.61-.63l-2.59-.12c-.7-.03-1.06-.4-1.08-1.11l-.05-2.07c-.02-.59.45-1.07 1.04-1.09h.02l21.2-.19c.38 0 .68-.31.67-.69v-.01l-.07-3.03c0-.37-.19-.57-.56-.61l-2.66-.28c-.85-.09-1.31-.57-1.37-1.42l-.11-1.42c-.05-.79.31-1.23 1.09-1.32 1.2-.15 2.38-.22 3.55-.23 18.75-.13 36.61-.12 53.59.02.86 0 1.27.44 1.22 1.3l-.11 2.04c-.03.6-.51 1.07-1.11 1.1l-2.62.11c-.48.02-.73.27-.74.74l-.08 2.9c-.01.53.25.79.78.8l21.88.11c.15 0 .22.07.21.22l-.05 3.93c0 .13-.08.21-.21.22l-3.85.26c-.38.03-.57.23-.56.62l.05 89.95c0 .35.29.64.64.64l10.41.03c.22 0 .39-.18.39-.4l-.07-28.13c0-.31-.26-.57-.57-.56-.12 0-.23.04-.33.11l-3.53 2.61c-.62.45-1.19.4-1.7-.17-.66-.73-1.16-1.49-1.5-2.28-.18-.41-.04-.9.33-1.16l4.82-3.45c.45-.32.56-.94.24-1.39-.06-.09-.14-.16-.22-.23l-4.86-3.67c-.51-.38-.58-.83-.21-1.34l1.71-2.4c.26-.37.57-.42.93-.15l4.26 3.14c.46.35.69.23.69-.34ZM81.54 89.29c.37.53.57 1.13.59 1.79.15 4.65.18 8.99.08 13.04-.01.63.29.94.92.94l5.04.02c.49 0 .74-.24.74-.74V5.38a.76.76 0 0 0-.76-.76H48.41c-.32 0-.48.16-.48.48l.09 99.28c0 .42.21.63.63.64l5.44.11c.39 0 .7-.3.71-.68v-.03l-.21-13.52c-.02-1.12.86-2.04 1.98-2.06h24.09c.35 0 .68.17.88.45ZM43.39 14.45c0-.33-.27-.6-.6-.6H30.25c-.33 0-.6.27-.6.6v89.98c0 .33.27.6.6.6h12.54c.33 0 .6-.27.6-.6V14.45Zm63.95-.04c0-.35-.29-.64-.64-.64H94.24c-.35 0-.64.29-.64.64v90c0 .35.29.64.64.64h12.46c.35 0 .64-.29.64-.64v-90ZM66.13 94.46c0-.46-.38-.84-.85-.83l-5.1.04c-.46 0-.84.38-.83.85s.07 9.7.07 9.7c0 .46.38.84.85.83l5.1-.04c.46 0 .84-.38.83-.85s-.07-9.7-.07-9.7Zm11.47-.01a.87.87 0 0 0-.87-.87l-5.04.03c-.48 0-.87.39-.86.87l.05 9.7c0 .48.39.87.87.86l5.04-.03c.48 0 .87-.39.86-.87s-.05-9.7-.05-9.7Z" style="fill:#58a7bc;stroke-width:0"/><path d="M35.29 20.31h2.48c.59 0 1.07.47 1.07 1.06v5.08c0 .59-.47 1.07-1.06 1.07H35.3c-.59 0-1.07-.47-1.07-1.06v-5.08c0-.59.47-1.07 1.06-1.07Zm63.57.26h3.18c.4-.01.73.31.73.72l.02 5.38c0 .4-.32.73-.73.73h-3.18c-.4.01-.73-.31-.73-.72l-.02-5.38c0-.4.32-.73.73-.73Zm-63.69 11.3h2.78c.47-.01.86.37.86.85l.02 5.36c0 .47-.38.86-.86.86h-2.78a.845.845 0 0 1-.86-.85l-.02-5.36c0-.47.38-.86.86-.86Zm63.61.08h3.36c.34 0 .61.27.61.6v5.68c.01.34-.26.61-.6.61h-3.36c-.34 0-.61-.27-.61-.6v-5.68c-.01-.34.26-.61.6-.61Zm-63.65 11.3h2.9c.44 0 .79.35.79.78v5.46a.77.77 0 0 1-.78.79h-2.9c-.44 0-.79-.35-.79-.78v-5.46a.77.77 0 0 1 .78-.79Zm63.58.09 3.52.02c.29 0 .53.24.53.53l-.03 5.78c0 .29-.24.53-.53.53l-3.52-.02c-.29 0-.53-.24-.53-.53l.03-5.78c0-.29.24-.53.53-.53ZM35 54.66h3.1c.38-.01.68.29.68.67l.02 5.68c0 .38-.3.68-.68.68h-3.1a.66.66 0 0 1-.68-.67l-.02-5.68c0-.38.3-.68.68-.68Zm63.69.07 3.46-.02c.3 0 .55.24.55.55l.03 5.82c0 .3-.24.55-.55.55l-3.46.02c-.3 0-.55-.24-.55-.55l-.03-5.82c0-.3.24-.55.55-.55ZM35.1 66.08h2.94c.43 0 .78.35.78.78v5.48c0 .43-.35.78-.78.78H35.1c-.43 0-.78-.35-.78-.78v-5.48c0-.43.35-.78.78-.78Zm63.72.03h3.26c.37 0 .67.3.67.67v5.64c0 .37-.3.67-.67.67h-3.26a.67.67 0 0 1-.67-.67v-5.64c0-.37.3-.67.67-.67ZM34.99 77.56l3.08-.03c.4 0 .73.32.74.72l.05 5.58c0 .4-.32.73-.72.74l-3.08.03a.74.74 0 0 1-.74-.72l-.05-5.58c0-.4.32-.73.72-.74Zm63.81.02h3.3c.37 0 .67.3.67.67v5.6c0 .37-.3.67-.67.67h-3.3a.67.67 0 0 1-.67-.67v-5.6c0-.37.3-.67.67-.67ZM34.94 88.92h3.24c.34 0 .62.27.62.61v5.82c.01.34-.27.62-.61.62h-3.24c-.34 0-.62-.27-.62-.61v-5.82c-.01-.34.27-.62.61-.62Zm63.64.07 3.62-.05c.27 0 .48.21.49.47l.08 6c0 .27-.21.48-.47.49l-3.62.05c-.27 0-.48-.21-.49-.47l-.08-6c0-.27.21-.48.47-.49ZM53.14 7.53h2.48c.59 0 1.07.47 1.07 1.06v5.08c0 .59-.47 1.07-1.06 1.07h-2.48c-.59 0-1.07-.47-1.07-1.06V8.6c0-.59.47-1.07 1.06-1.07Zm-.12 11.56h2.78c.47-.01.86.37.86.85l.02 5.36c0 .47-.38.86-.86.86h-2.78a.845.845 0 0 1-.86-.85l-.02-5.36c0-.47.38-.86.86-.86Zm-.04 11.38h2.9c.44 0 .79.35.79.78v5.46a.77.77 0 0 1-.78.79h-2.9c-.44 0-.79-.35-.79-.78v-5.46a.77.77 0 0 1 .78-.79Zm-.13 11.41h3.1c.38-.01.68.29.68.67l.02 5.68c0 .38-.3.68-.68.68h-3.1a.66.66 0 0 1-.68-.67l-.02-5.68c0-.38.3-.68.68-.68Zm.1 11.42h2.94c.43 0 .78.35.78.78v5.48c0 .43-.35.78-.78.78h-2.94c-.43 0-.78-.35-.78-.78v-5.48c0-.43.35-.78.78-.78Zm-.11 11.48 3.08-.03c.4 0 .73.32.74.72l.05 5.58c0 .4-.32.73-.72.74l-3.08.03a.74.74 0 0 1-.74-.72l-.05-5.58c0-.4.32-.73.72-.74Zm-.04 11.36h3.24c.34 0 .62.27.62.61v5.82c.01.34-.27.62-.61.62h-3.24c-.34 0-.62-.27-.62-.61v-5.82c-.01-.34.27-.62.61-.62Zm8.72-68.58H64c.59 0 1.07.47 1.07 1.06v5.08c0 .59-.47 1.07-1.06 1.07h-2.48c-.59 0-1.07-.47-1.07-1.06V8.63c0-.59.47-1.07 1.06-1.07Zm-.12 11.56h2.78c.47-.01.86.37.86.85l.02 5.36c0 .47-.38.86-.86.86h-2.78a.845.845 0 0 1-.86-.85l-.02-5.36c0-.47.38-.86.86-.86Zm-.04 11.38h2.9c.44 0 .79.35.79.78v5.46a.77.77 0 0 1-.78.79h-2.9c-.44 0-.79-.35-.79-.78v-5.46a.77.77 0 0 1 .78-.79Zm-.13 11.41h3.1c.38-.01.68.29.68.67l.02 5.68c0 .38-.3.68-.68.68h-3.1a.66.66 0 0 1-.68-.67l-.02-5.68c0-.38.3-.68.68-.68Zm.1 11.42h2.94c.43 0 .78.35.78.78v5.48c0 .43-.35.78-.78.78h-2.94c-.43 0-.78-.35-.78-.78v-5.48c0-.43.35-.78.78-.78Zm-.11 11.48 3.08-.03c.4 0 .73.32.74.72l.05 5.58c0 .4-.32.73-.72.74l-3.08.03a.74.74 0 0 1-.74-.72l-.05-5.58c0-.4.32-.73.72-.74Zm-.04 11.36h3.24c.34 0 .62.27.62.61v5.82c.01.34-.27.62-.61.62h-3.24c-.34 0-.62-.27-.62-.61v-5.82c-.01-.34.27-.62.61-.62Zm9.96-68.61h2.48c.59 0 1.07.47 1.07 1.06v5.08c0 .59-.47 1.07-1.06 1.07h-2.48c-.59 0-1.07-.47-1.07-1.06V8.63c0-.59.47-1.07 1.06-1.07Zm-.12 11.56h2.78c.47-.01.86.37.86.85l.02 5.36c0 .47-.38.86-.86.86h-2.78a.845.845 0 0 1-.86-.85l-.02-5.36c0-.47.38-.86.86-.86Zm-.04 11.38h2.9c.44 0 .79.35.79.78v5.46a.77.77 0 0 1-.78.79h-2.9c-.44 0-.79-.35-.79-.78v-5.46a.77.77 0 0 1 .78-.79Zm-.13 11.41h3.1c.38-.01.68.29.68.67l.02 5.68c0 .38-.3.68-.68.68h-3.1a.66.66 0 0 1-.68-.67l-.02-5.68c0-.38.3-.68.68-.68Zm.1 11.42h2.94c.43 0 .78.35.78.78v5.48c0 .43-.35.78-.78.78h-2.94c-.43 0-.78-.35-.78-.78v-5.48c0-.43.35-.78.78-.78Zm-.11 11.48 3.08-.03c.4 0 .73.32.74.72l.05 5.58c0 .4-.32.73-.72.74l-3.08.03a.74.74 0 0 1-.74-.72l-.05-5.58c0-.4.32-.73.72-.74Zm-.04 11.36h3.24c.34 0 .62.27.62.61v5.82c.01.34-.27.62-.61.62h-3.24c-.34 0-.62-.27-.62-.61v-5.82c-.01-.34.27-.62.61-.62Zm9.56-68.58h2.48c.59 0 1.07.47 1.07 1.06v5.08c0 .59-.47 1.07-1.06 1.07h-2.48c-.59 0-1.07-.47-1.07-1.06V8.66c0-.59.47-1.07 1.06-1.07Zm-.12 11.56h2.78c.47-.01.86.37.86.85l.02 5.36c0 .47-.38.86-.86.86h-2.78a.845.845 0 0 1-.86-.85l-.02-5.36c0-.47.38-.86.86-.86Zm-.04 11.38h2.9c.44 0 .79.35.79.78v5.46a.77.77 0 0 1-.78.79h-2.9c-.44 0-.79-.35-.79-.78v-5.46a.77.77 0 0 1 .78-.79Zm-.13 11.41h3.1c.38-.01.68.29.68.67l.02 5.68c0 .38-.3.68-.68.68h-3.1a.66.66 0 0 1-.68-.67l-.02-5.68c0-.38.3-.68.68-.68Zm.1 11.42h2.94c.43 0 .78.35.78.78v5.48c0 .43-.35.78-.78.78h-2.94c-.43 0-.78-.35-.78-.78v-5.48c0-.43.35-.78.78-.78Zm-.11 11.48 3.08-.03c.4 0 .73.32.74.72l.05 5.58c0 .4-.32.73-.72.74l-3.08.03a.74.74 0 0 1-.74-.72l-.05-5.58c0-.4.32-.73.72-.74Zm-.04 11.36h3.24c.34 0 .62.27.62.61v5.82c.01.34-.27.62-.61.62h-3.24c-.34 0-.62-.27-.62-.61v-5.82c-.01-.34.27-.62.61-.62Z" style="fill:#58a7bc;stroke-width:0"/></symbol>
<symbol id="facilities" viewBox="0 0 136.87 94.903"><path fill="currentColor" d="m57.64 39.593-.09 5.41a2.28 2.28 0 0 1-1.73 2.17q-.57.14-1.15.06-2.42-.35-2.44-2.8l-.12-15.61q0-.79-.79-.79H5.75a.36.36 0 0 0-.36.36l-.01 60.7q0 .46.46.46l50.19-.01q2.61 0 2.88 2.6.04.37-.09.72-.71 2.04-2.88 2.04H2.83A2.83 2.82 0 0 1 0 92.083v-66.63a2.81 2.81 0 0 1 2.81-2.81l48.76-.01q.63 0 .62-.63-.21-7.57.22-15.41c.45-8.1 11.37-8.95 13.94-1.36q1.08 3.2-1.76 4.5a2.13 2.12 66.3 0 1-2.85-1.12l-1.04-2.5a1.39 1.39 0 0 0-1.61-.81q-1.51.37-1.52 1.94-.02 7.4 0 14.82 0 .58.58.58h17.97a.39.39 0 0 0 .39-.38q.09-7.17-.03-13.87c-.21-11.94 15.5-10.19 14.14-.54a2.07 2.08 75.5 0 1-.82 1.38q-1.6 1.2-3.26.01a2.17 2.16 14.8 0 1-.91-1.55q-.15-1.35-1.03-2.07a1.67 1.67 0 0 0-2.72 1.29v15.22a.5.5 0 0 0 .5.5l51.75.01a2.74 2.74 0 0 1 2.74 2.74v67.01a2.5 2.51 0 0 1-2.5 2.51H81q-2.6 0-3.13-2.54-.1-.46.1-.88.93-1.94 3.08-1.94l50.24.01a.34.34 0 0 0 .34-.34v-60.51q0-.68-.68-.68l-48.52.03q-.61 0-.6.61.16 8.05-.07 16.1-.06 2.37-2.43 2.54-.37.02-.74-.09-1.94-.61-1.99-2.65l-.12-5.05q-.02-.71-.72-.71l-17.34.02q-.77 0-.78.77zm18.9-11.04a.53.53 0 0 0-.53-.53h-17.9a.53.53 0 0 0-.53.53v4.3a.53.53 0 0 0 .53.53h17.9a.53.53 0 0 0 .53-.53z"/><path fill="currentColor" d="M78.54 56.073c6.51 3.2 11.75 1.94 17.84-.91q3.45-1.62 7.89-1.41 2.34.11 2.64 2.43.06.46-.11.9-.67 1.78-2.58 1.84c-3.98.11-6.51 1.49-10.89 3.23q-8.02 3.2-18-1.68-4.26-2.09-10.06-1.33-.08.01-6.63 2.66-9.11 3.69-19.12-1.35-2.81-1.41-6.75-1.49-2.05-.03-2.61-2-.1-.34-.07-.67.17-2.47 2.63-2.55c3.99-.14 7.41.93 10.9 2.69 4.06 2.04 9.54 2.07 13.36.24 7.16-3.44 14.18-4.24 21.56-.6zM36.25 74.733c5.79 2.41 14.04 1.63 19.77-.55q12.54-4.78 24.94 0c6.13 2.36 13.91 2.82 20.13.41 4.39-1.7 8.75-2.86 13.53-2.72q2.55.08 2.77 2.62.03.38-.08.74-.62 1.97-2.69 1.98-5.5.04-8.31 1.2-14.05 5.82-27.1.81c-6.26-2.41-13.64-2.83-19.97-.54-2.78 1.01-5.51 2.05-8.48 2.47q-9.84 1.37-18.41-2.13-4.59-1.88-9.92-1.78-2.43.05-2.89-2.33-.06-.27-.02-.54.35-2.49 2.86-2.53 6.71-.09 13.87 2.89z"/><circle cx="68.47" cy="92.153" r="2.68" fill="currentColor"/></symbol>
<symbol id="geo" viewBox="0 0 49.452 60.806"><path fill="currentColor" d="M46.667 39.825q-4.61 12.27-14.61 18.69-8.09 5.19-16.7-1.38c-8.76-6.69-13.77-16.9-15.13-27.87-1.45-11.75 4.1-22.54 14.94-27.28 6.81-2.99 15.16-2.61 21.56 1.19 13.64 8.12 15.18 22.68 9.94 36.65zm-11.83-32.78c-13.56-7.68-30.61 2.05-30.55 17.94.04 11.55 5.98 24.87 16.61 30.51q4.22 2.24 8.73-.52c14.5-8.88 23.78-37.41 5.21-47.93z"/><path fill="currentColor" d="M35.367 24.745a10.62 10.62 0 0 1-10.62 10.62 10.62 10.62 0 0 1-10.62-10.62 10.62 10.62 0 0 1 10.62-10.62 10.62 10.62 0 0 1 10.62 10.62zm-4.28.01a6.33 6.33 0 0 0-6.33-6.33 6.33 6.33 0 0 0-6.33 6.33 6.33 6.33 0 0 0 6.33 6.33 6.33 6.33 0 0 0 6.33-6.33z"/></symbol>
<symbol id="meal" viewBox="0 0 53.77 43.825"><path fill="currentColor" d="m24.68 4.725.04-2.76a1.95 1.95 0 0 1 1.2-1.77q.6-.25 1.16-.18 2.13.27 2 2.41-.19 2.96.3 3.01 12.89 1.32 20.04 11.65c3.45 4.98 8.86 19.6-2.54 19.53q-19.78-.12-40.92-.04c-4.32.02-6.38-3.61-5.89-7.66 1.61-13.07 10.87-21.68 23.96-23.45q.64-.09.65-.74zM5.15 32.385h43.52a.87.87 0 0 0 .87-.87v-.29a22.39 21.6 0 0 0-22.39-21.6h-.48a22.39 21.6 0 0 0-22.39 21.6v.29a.87.87 0 0 0 .87.87z"/><rect x=".061" y="39.505" fill="currentColor" rx="2.13"/></symbol>
</svg>
