<?xml version="1.0" encoding="UTF-8"?>
<svg xmlns="http://www.w3.org/2000/svg" xmlns:xlink="http://www.w3.org/1999/xlink" width="0" height="0">
<symbol id="accessibility" xml:space="preserve" baseProfile="tiny" viewBox="0 0 12.028 15.293"><g fill-rule="evenodd"><path fill="currentColor" d="m8.466 14.317 1.059.962h2.504l-1.174-1.065-1.173-1.067-1.075-.977-.284-.258a4.292 4.292 0 0 1-1.181 1.202 2.908 2.908 0 0 1-.79.384 3.32 3.32 0 0 1-.955.133c-.51 0-.98-.099-1.412-.295a3.384 3.384 0 0 1-1.11-.793 3.587 3.587 0 0 1-.72-1.169 3.703 3.703 0 0 1-.194-.696l-1.07-.971-.802-.728A5.621 5.621 0 0 0 0 9.983c0 .727.132 1.412.397 2.06A5.147 5.147 0 0 0 1.5 13.734c.47.48 1.034.859 1.691 1.138.657.281 1.382.421 2.176.421.137 0 .274-.004.407-.014.455-.03.883-.112 1.285-.244a5.33 5.33 0 0 0 1.407-.718z"/><path d="M10.502 11.615a5.24 5.24 0 0 0 .263-1.66 5.4 5.4 0 0 0-.398-2.061c-.264-.646-.631-1.209-1.102-1.689s-1.035-.861-1.691-1.14c-.656-.28-1.382-.419-2.176-.419-.672 0-1.345.104-1.975.344l.665-1.688h-1.81L.716 7.272l1.425 1.295 2.248 2.043L5.64 9.473 3.09 7.154a3.4 3.4 0 0 1 2.277-.847 3.4 3.4 0 0 1 2.522 1.09c.309.332.549.724.721 1.168a3.924 3.924 0 0 1 .254 1.564l.691.628.947.858zM3.865 0a1.253 1.253 0 1 1 .002 2.506A1.253 1.253 0 0 1 3.865 0z"/></g></symbol>
<symbol id="close-fill" fill="none" viewBox="0 0 24 24"><path fill="currentColor" d="M12 2C6.49 2 2 6.49 2 12s4.49 10 10 10 10-4.49 10-10S17.51 2 12 2Zm3.36 12.3c.29.29.29.77 0 1.06-.15.15-.34.22-.53.22s-.38-.07-.53-.22l-2.3-2.3-2.3 2.3c-.15.15-.34.22-.53.22s-.38-.07-.53-.22a.754.754 0 0 1 0-1.06l2.3-2.3-2.3-2.3a.754.754 0 0 1 0-1.06c.29-.29.77-.29 1.06 0l2.3 2.3 2.3-2.3c.29-.29.77-.29 1.06 0 .29.29.29.77 0 1.06l-2.3 2.3 2.3 2.3Z"/></symbol>
<symbol id="info-question" viewBox="0 0 91.03 90.95"><path fill="currentColor" d="M6.417 68.83c-13.42-22.67-5.19-52.45 19.09-64.21 26.71-12.95 58.1 2.54 64.4 31.28q1.08 4.95 1.11 14.6.05 18.89-.09 37.15a3.31 3.3.1 0 1-3.3 3.28q-2.5 0-38.01.02-10.47 0-15.35-1.36-18.63-5.19-27.85-20.76zm.77-26.44c-1.34 18.69 10.1 34.94 28.02 40.15q5.31 1.54 14.26 1.43 16.45-.19 33.71-.01a.72.72 0 0 0 .73-.72q.11-18.08-.05-37.55c-.15-18.73-12.94-34.3-31.06-37.86-22.27-4.38-43.96 11.73-45.61 34.56z"/><path fill="currentColor" d="M49.217 40.23c2.3-1.97 2.83-5.93-.2-7.5-2.31-1.19-6.46-1.29-8.33 1.08q-.67.85-1.28 1.72c-1.03 1.48-3.11 1.5-4.41.45q-2.47-2.01-.82-5.19c4.78-9.23 23.66-7.56 24.71 3.72.43 4.71-3.43 9.38-7.06 12.05-2.3 1.7-3.51 4.14-3.32 7.04q.21 2.99-2.79 3.04l-1.03.01q-2.92.04-3.18-2.86c-.63-7.11 2.99-9.52 7.71-13.56z"/><circle cx="44.947" cy="65.77" r="4.72" fill="currentColor"/></symbol>
<symbol id="sliders-horizontal" viewBox="0 0 24 24" fill="none" stroke="currentColor" stroke-width="2" stroke-linecap="round" stroke-linejoin="round" class="lucide lucide-sliders-horizontal"><line x1="21" x2="14" y1="4" y2="4"/><line x1="10" x2="3" y1="4" y2="4"/><line x1="21" x2="12" y1="12" y2="12"/><line x1="8" x2="3" y1="12" y2="12"/><line x1="21" x2="16" y1="20" y2="20"/><line x1="12" x2="3" y1="20" y2="20"/><line x1="14" x2="14" y1="2" y2="6"/><line x1="8" x2="8" y1="10" y2="14"/><line x1="16" x2="16" y1="18" y2="22"/></symbol>
</svg>
