<svg id="Слой_1" data-name="Слой 1" xmlns="http://www.w3.org/2000/svg" xmlns:xlink="http://www.w3.org/1999/xlink" viewBox="0 0 32 32"><defs><style>.cls-1{fill:url(#Foliage_14);}.cls-2{fill:#fff;}</style><linearGradient id="Foliage_14" y1="18" x2="32" y2="18" gradientTransform="matrix(1, 0, 0, -1, 0, 34)" gradientUnits="userSpaceOnUse"><stop offset="0.01" stop-color="#009d84"/><stop offset="0.5" stop-color="#008b6a"/><stop offset="1" stop-color="#065"/></linearGradient></defs><path class="cls-1" d="M32,5V27a5,5,0,0,1-5,5H5A5,5,0,0,1,.08,27.9,5.47,5.47,0,0,1,0,27V5A5,5,0,0,1,5,0H27A5,5,0,0,1,32,5Z"/><path class="cls-2" d="M27.51,11.82a37.6,37.6,0,0,1-3.65,1.82l-3.65,9.43a1.19,1.19,0,0,1-1.16,1.22H19c-.3,0-.61-.31-.61-1.22s-.61-5.78-.61-5.78A69.6,69.6,0,0,0,5.91,23.68C4.1,24.92,2.11,26.34.09,27.89A4.41,4.41,0,0,1,0,27V20.74a59.43,59.43,0,0,1,15.63-8.92L10.78,7.56a.67.67,0,0,1-.32-.89v0c.31-.61,1.22-.31,2.13,0s9.13,2.43,9.13,2.43l3-1.52s2.43-.91,3.34,1.22a2.15,2.15,0,0,1-.48,3Z"/></svg>