<?xml version="1.0" encoding="UTF-8"?>
<svg xmlns="http://www.w3.org/2000/svg" xmlns:xlink="http://www.w3.org/1999/xlink" width="0" height="0">
<symbol id="door-in" xml:space="preserve" style="enable-background:new 0 0 232 234.1" viewBox="0 0 232 234.1"><path d="M214.6 4.4c7 2.5 12.4 7.8 13.5 13.5.5 2.7.5 177.2 0 179.9-1.8 9.2-6.4 11.8-39.1 22-8.3 2.6-16.3 5.2-17.7 5.8-23.9 10.3-39.6 4.6-40.9-14.9-.6-8.1.7-7.7-20.8-7.9-19.1-.2-19.1-.2-24.8-2.8-5.7-2.6-10.8-8.2-12.9-14.1-.9-2.6-1.2-23.7-.3-25.9 1.3-3.3 4.5-4.4 7-2.4 2.3 1.8 2.4 2.5 2.6 14 .3 12.8.4 13.4 4.5 17.2 4.8 4.5 6.3 4.8 26.3 4.6 15.9-.1 16.1-.1 17.5-2.6.6-1.1.7-5.4.9-76.8l.2-75.6.8-2.2c2.9-7.4 8.2-11.4 19.9-15 6-1.9 12.6-4.8 13.2-5.8 1.2-1.9-1.5-2-39.1-2.1-35.9 0-35-.1-40 4.6-3.7 3.5-3.9 4.3-4.1 17.2-.2 9.1-.3 11-.8 11.9-2.2 3.9-6.8 4-8.6.1-1-2-1.1-20.9-.2-25.2 1.9-8.5 11.6-16.8 21.2-18.1 5.7-.7 119.4-.2 121.7.6m-7.5 7.6c-3.1.5-9.4 2.3-15.2 4.3-2.8 1-6.4 2.2-8 2.6-1.6.4-6.6 2.1-11.2 3.8-4.6 1.6-12.6 4.2-17.6 5.8-9.6 3-10.5 3.4-12.6 5.3-3.8 3.3-3.6-3-3.5 94.9.1 96.7-.2 87.9 3 91 4.8 4.7 8.3 4.2 36.5-5.2 3.9-1.3 11.1-3.6 15.9-5 22.5-6.7 24.2-7.7 25.6-14.5.9-4.3.4-174.7-.5-176.8-2.1-4.8-6.6-7.1-12.4-6.2M66.9 62c2.2 1.1 37.2 36.3 38.2 38.3 2.2 4.5 1.5 5.4-17.1 23.9-22 21.8-23.3 22.7-26.6 19.4-3.1-3.1-1-6.7 10.1-16.8 10.3-9.4 14.8-14.6 14.3-16.5-.5-2 .8-1.9-39.9-2.1-37.7-.2-37.7-.2-39.4-1-4.1-1.9-4-6.5.1-8.3 1.5-.6 3.5-.7 39.1-.9 42-.2 39.9-.1 39.9-2.6 0-1.9-1.5-3.8-7.6-9.7-13.8-13.3-16.5-16-17.3-17.6-2.2-4.5 1.7-8.4 6.2-6.1" style="fill-rule:evenodd;clip-rule:evenodd;fill:#3db3c6;stroke:#3db3c6;stroke-width:7;stroke-miterlimit:10"/></symbol>
<symbol id="door-out" xml:space="preserve" style="enable-background:new 0 0 232 234.1" viewBox="0 0 232 234.1"><path d="M214.6 4.4c7 2.5 12.4 7.8 13.5 13.5.5 2.7.5 177.2 0 179.9-1.8 9.2-6.4 11.8-39.1 22-8.3 2.6-16.3 5.2-17.7 5.8-23.9 10.3-39.6 4.6-40.9-14.9-.6-8.1.7-7.7-20.8-7.9-19.1-.2-19.1-.2-24.8-2.8-5.7-2.6-10.8-8.2-12.9-14.1-.9-2.6-1.2-23.7-.3-25.9 1.3-3.3 4.5-4.4 7-2.4 2.3 1.8 2.4 2.5 2.6 14 .3 12.8.4 13.4 4.5 17.2 4.8 4.5 6.3 4.8 26.3 4.6 15.9-.1 16.1-.1 17.5-2.6.6-1.1.7-5.4.9-76.8l.2-75.6.8-2.2c2.9-7.4 8.2-11.4 19.9-15 6-1.9 12.6-4.8 13.2-5.8 1.2-1.9-1.5-2-39.1-2.1-35.9 0-35-.1-40 4.6-3.7 3.5-3.9 4.3-4.1 17.2-.2 9.1-.3 11-.8 11.9-2.2 3.9-6.8 4-8.6.1-1-2-1.1-20.9-.2-25.2 1.9-8.5 11.6-16.8 21.2-18.1 5.7-.7 119.4-.2 121.7.6m-7.5 7.6c-3.1.5-9.4 2.3-15.2 4.3-2.8 1-6.4 2.2-8 2.6-1.6.4-6.6 2.1-11.2 3.8-4.6 1.6-12.6 4.2-17.6 5.8-9.6 3-10.5 3.4-12.6 5.3-3.8 3.3-3.6-3-3.5 94.9.1 96.7-.2 87.9 3 91 4.8 4.7 8.3 4.2 36.5-5.2 3.9-1.3 11.1-3.6 15.9-5 22.5-6.7 24.2-7.7 25.6-14.5.9-4.3.4-174.7-.5-176.8-2.1-4.8-6.6-7.1-12.4-6.2M42.6 144.4c-2.2-1.1-37.2-36.3-38.2-38.3-2.2-4.5-1.5-5.4 17.1-23.9C43.4 60.4 44.7 59.4 48 62.7c3.1 3.1 1 6.7-10.1 16.8C27.6 89 23.1 94.1 23.6 96.1c.5 2-.8 1.9 39.9 2.1 37.7.2 37.7.2 39.4 1 4.1 1.9 4 6.5-.1 8.3-1.5.6-3.5.7-39.1.9-42 .2-39.9.1-39.9 2.6 0 1.9 1.5 3.8 7.6 9.7 13.8 13.3 16.5 16 17.3 17.6 2.2 4.4-1.7 8.3-6.1 6.1" style="fill-rule:evenodd;clip-rule:evenodd;fill:#3db3c6;stroke:#3db3c6;stroke-width:7;stroke-miterlimit:10"/></symbol>
<symbol id="luggage" viewBox="0 0 24 24"><g fill="none" fill-rule="evenodd"><path d="M24 0v24H0V0h24ZM12.594 23.258l-.012.002-.071.035-.02.004-.014-.004-.071-.036c-.01-.003-.019 0-.024.006l-.004.01-.017.428.005.02.01.013.104.074.015.004.012-.004.104-.074.012-.016.004-.017-.017-.427c-.002-.01-.009-.017-.016-.018Zm.264-.113-.014.002-.184.093-.01.01-.003.011.018.43.005.012.008.008.201.092c.012.004.023 0 .029-.008l.004-.014-.034-.614c-.003-.012-.01-.02-.02-.022Zm-.715.002a.023.023 0 0 0-.027.006l-.006.014-.034.614c0 .012.007.02.017.024l.015-.002.201-.093.01-.008.003-.011.018-.43-.003-.012-.01-.01-.184-.092Z"/><path fill="currentColor" d="M14 4a3 3 0 0 1 3 3h3a2 2 0 0 1 2 2v10a2 2 0 0 1-2 2H4a2 2 0 0 1-2-2V9a2 2 0 0 1 2-2h3a3 3 0 0 1 3-3h4Zm1 5H9v10h6V9Zm5 0h-3v10h3V9ZM7 9H4v10h3V9Zm7-3h-4a1 1 0 0 0-.993.883L9 7h6a1 1 0 0 0-.883-.993L14 6Z"/></g></symbol>
<symbol id="plane-landing" viewBox="0 0 24 24" fill="none" stroke="currentColor" stroke-width="2" stroke-linecap="round" stroke-linejoin="round"><path d="M2 22h20"/><path d="M3.77 10.77 2 9l2-4.5 1.1.55c.55.28.9.84.9 1.45s.35 1.17.9 1.45L8 8.5l3-6 1.05.53a2 2 0 0 1 1.09 1.52l.72 5.4a2 2 0 0 0 1.09 1.52l4.4 2.2c.42.22.78.55 1.01.96l.6 1.03c.49.88-.06 1.98-1.06 2.1l-1.18.15c-.47.06-.95-.02-1.37-.24L4.29 11.15a2 2 0 0 1-.52-.38Z"/></symbol>
<symbol id="plane-takeoff" viewBox="0 0 24 24" fill="none" stroke="currentColor" stroke-linecap="round" stroke-linejoin="round" stroke-width="2"><path d="M2 22h20M17.66 17.4l2.36-.4 2-4-1.1-.55a2 2 0 0 0-1.8 0l-.17.1a2 2 0 0 1-1.8 0L16.02 12l3-6-.9-.45a2 2 0 0 0-2.09.2l-4.02 3a2 2 0 0 1-2.1.2L5.72 6.89a2.41 2.41 0 0 0-1.73-.17L3.02 7a1.4 1.4 0 0 0-.87 1.99l.38.76c.23.46.6.84 1.07 1.08l12.84 6.37a2 2 0 0 0 1.22.18z"/></symbol>
</svg>
